<svg width="26" height="26" viewBox="0 0 26 26" fill="none" xmlns="http://www.w3.org/2000/svg">
	<path d="M13.3978 19.3049L13.8558 20.1938L13.8558 20.1938L13.3978 19.3049ZM12.6022 19.3049L12.1442 20.1938L12.1442 20.1938L12.6022 19.3049ZM19.5833 9.74999C19.5833 12.1214 18.3675 14.0697 16.8684 15.5715C15.3705 17.0721 13.6759 18.0367 12.9398 18.416L13.8558 20.1938C14.6812 19.7686 16.5793 18.6921 18.2838 16.9845C19.9871 15.2782 21.5833 12.8513 21.5833 9.74999H19.5833ZM13 3.16666C16.6359 3.16666 19.5833 6.11412 19.5833 9.74999H21.5833C21.5833 5.00955 17.7404 1.16666 13 1.16666V3.16666ZM6.41667 9.74999C6.41667 6.11412 9.36413 3.16666 13 3.16666V1.16666C8.25956 1.16666 4.41667 5.00955 4.41667 9.74999H6.41667ZM13.0602 18.416C12.3241 18.0367 10.6295 17.0721 9.13165 15.5715C7.63251 14.0697 6.41667 12.1214 6.41667 9.74999H4.41667C4.41667 12.8513 6.0129 15.2782 7.71617 16.9845C9.42074 18.6921 11.3189 19.7686 12.1442 20.1938L13.0602 18.416ZM12.9398 18.416C12.9524 18.4095 12.9735 18.4027 13 18.4027C13.0265 18.4027 13.0476 18.4095 13.0602 18.416L12.1442 20.1938C12.6848 20.4724 13.3152 20.4724 13.8558 20.1938L12.9398 18.416ZM15.25 9.74999C15.25 10.9926 14.2426 12 13 12V14C15.3472 14 17.25 12.0972 17.25 9.74999H15.25ZM13 7.49999C14.2426 7.49999 15.25 8.50735 15.25 9.74999H17.25C17.25 7.40278 15.3472 5.49999 13 5.49999V7.49999ZM10.75 9.74999C10.75 8.50735 11.7574 7.49999 13 7.49999V5.49999C10.6528 5.49999 8.75001 7.40278 8.75001 9.74999H10.75ZM13 12C11.7574 12 10.75 10.9926 10.75 9.74999H8.75001C8.75001 12.0972 10.6528 14 13 14V12Z" fill="#FBFBFB"/>
	<path d="M21.4437 18.9583C22.2995 19.4524 22.75 20.0128 22.75 20.5833C22.75 21.1538 22.2995 21.7143 21.4437 22.2083C20.588 22.7024 19.3572 23.1127 17.875 23.3979C16.3928 23.6832 14.7115 23.8333 13 23.8333C11.2885 23.8333 9.60719 23.6832 8.125 23.3979C6.64281 23.1127 5.41199 22.7024 4.55625 22.2083C3.70051 21.7143 3.25 21.1538 3.25 20.5833C3.25 20.0128 3.70051 19.4524 4.55625 18.9583" stroke="#FBFBFB" stroke-width="2" stroke-linecap="round"/>
</svg>
