<svg width="22" height="22" viewBox="0 0 22 22" fill="none" xmlns="http://www.w3.org/2000/svg">
	<path fill-rule="evenodd" clip-rule="evenodd" d="M3.5 20H11V21.5H3.5C2.675 21.5 2 20.825 2 20V17H0.5V15.5H2V11.75H0.5V10.25H2V6.5H0.5V5H2V2C2 1.175 2.675 0.5 3.5 0.5H17C17.825 0.5 18.5 1.175 18.5 2V14H17V2H3.5V5H5V6.5H3.5V10.25H5V11.75H3.5V15.5H5V17H3.5V20ZM14 5H8V6.5H14V5ZM8 8.75H14V10.25H8V8.75ZM14 12.5H8V14H14V12.5ZM16.25 19.3997L14.3 17.4497L13.25 18.4997L16.25 21.4997L21.5 16.2497L20.45 15.1997L16.25 19.3997Z" fill="#E1E1E1"/>
</svg>
