<svg width="40" height="40" viewBox="0 0 40 40" fill="none" xmlns="http://www.w3.org/2000/svg">
	<path d="M32.5 5H27.5V2.5H25V5H15V2.5H12.5V5H7.5C6.83721 5.00083 6.20181 5.26448 5.73315 5.73315C5.26448 6.20181 5.00083 6.83721 5 7.5V32.5C5.00083 33.1628 5.26448 33.7982 5.73315 34.2669C6.20181 34.7355 6.83721 34.9992 7.5 35H32.5C33.1628 34.9992 33.7982 34.7355 34.2669 34.2669C34.7355 33.7982 34.9992 33.1628 35 32.5V7.5C34.9992 6.83721 34.7355 6.20181 34.2669 5.73315C33.7982 5.26448 33.1628 5.00083 32.5 5V5ZM7.5 7.5H12.5V10H15V7.5H25V10H27.5V7.5H32.5V12.5H7.5V7.5ZM7.5 15H13.75V22.5H7.5V15ZM23.75 32.5H16.25V25H23.75V32.5ZM23.75 22.5H16.25V15H23.75V22.5ZM26.25 32.5V25H32.5L32.5015 32.5H26.25Z" fill="#E3E3E3"/>
</svg>
