<svg width="1206" height="976" viewBox="0 0 1206 976" fill="none" xmlns="http://www.w3.org/2000/svg">
	<g filter="url(#filter0_f_3_485)">
		<path d="M891.854 725.278C935.959 711.961 1016.25 675.573 1045.11 648.641C1078.39 620.451 1009.37 588.912 1001.18 584.159C992.989 579.407 590.538 379.794 520.343 348.901C450.148 318.009 227.87 383.18 174.047 413.063C130.175 437.42 161.178 454.649 167.028 459.401C172.877 464.154 508.121 651.017 628.622 708.049C719.878 751.24 805.28 751.417 891.854 725.278Z" fill="#121212" fill-opacity="0.2"/>
	</g>
	<path fill-rule="evenodd" clip-rule="evenodd" d="M573.6 515.695L618.122 495.046L618.131 495.064C618.404 494.932 618.68 494.803 618.959 494.678C645.479 482.775 683.313 509.741 703.463 554.909C723.613 600.077 718.448 646.342 691.928 658.245C691.61 658.388 691.291 658.525 690.97 658.656L647.932 678.645L624.172 626.558C617.864 618.225 612.157 608.621 607.424 598.013C603.058 588.226 599.881 578.388 597.851 568.859L573.6 515.695Z" fill="#0B0B0B"/>
	<ellipse cx="52.6562" cy="89.4451" rx="52.6562" ry="89.4451" transform="matrix(-0.911941 0.409292 0.407585 0.913628 622.926 493.712)" fill="#0B0B0B"/>
	<g filter="url(#filter1_i_3_485)">
		<ellipse cx="39.494" cy="67.0869" rx="39.494" ry="67.0869" transform="matrix(-0.911941 0.409292 0.407585 0.913628 618.515 519.574)" fill="url(#paint0_linear_3_485)"/>
	</g>
	<g filter="url(#filter2_di_3_485)">
		<path fill-rule="evenodd" clip-rule="evenodd" d="M610.367 548.631C616.416 551.986 622.409 557.194 627.787 563.857L616.275 583.856C614.425 581.689 612.408 579.96 610.367 578.77L610.367 548.631ZM610.367 616.537C613.267 617.953 616.164 618.249 618.65 617.133C618.917 617.013 619.174 616.88 619.423 616.732L636.178 645.841C635.049 646.673 633.838 647.384 632.545 647.964C625.9 650.947 618.116 650.016 610.367 646.01L610.367 616.537ZM609.123 645.34L609.123 615.861C606.872 614.514 604.656 612.512 602.665 609.995L591.379 629.602C596.834 636.495 602.947 641.882 609.123 645.34ZM609.123 578.112L609.123 547.968C601.425 544.028 593.7 543.129 587.098 546.092C585.255 546.92 583.577 548.013 582.068 549.342L599.06 578.863C599.646 578.346 600.298 577.921 601.014 577.6C603.451 576.506 606.282 576.768 609.123 578.112ZM579.891 610.461C582.896 617.197 586.533 623.282 590.554 628.541L601.85 608.917C600.49 607.037 599.256 604.908 598.217 602.58C597.943 601.964 597.688 601.349 597.452 600.733L578.017 605.957C578.597 607.458 579.222 608.961 579.891 610.461ZM617.117 584.888L628.619 564.906C632.827 570.302 636.63 576.598 639.752 583.595C640.351 584.936 640.913 586.279 641.44 587.621L621.773 592.907C621.668 592.656 621.559 592.405 621.447 592.154C620.233 589.433 618.754 586.985 617.117 584.888ZM577.574 604.786C573.905 594.904 572.164 585.121 572.243 576.394L595.249 589.717C595.265 592.769 595.848 596.138 597.025 599.558L577.574 604.786ZM622.239 594.072C623.707 597.925 624.418 601.75 624.416 605.168L647.388 618.471C647.588 609.402 645.797 599.141 641.89 588.79L622.239 594.072ZM647.34 619.882L624.373 606.582C624.123 610.669 622.786 614.051 620.442 616.009L637.167 645.065C643.375 639.875 646.841 630.812 647.34 619.882ZM572.272 574.972L595.283 588.297C595.473 584.812 596.448 581.83 598.158 579.79L581.135 550.215C575.628 555.681 572.61 564.507 572.272 574.972Z" fill="#4C4C4C"/>
	</g>
	<path fill-rule="evenodd" clip-rule="evenodd" d="M573.612 514.754L618.134 494.104L618.143 494.124C618.424 493.988 618.708 493.855 618.994 493.727C645.514 481.824 683.347 508.791 703.497 553.959C723.646 599.127 718.482 645.392 691.962 657.295C691.634 657.442 691.305 657.583 690.974 657.718L647.944 677.704L624.14 625.52C617.859 617.208 612.174 607.634 607.459 597.063C603.11 587.314 599.94 577.514 597.91 568.019L573.612 514.754Z" fill="#0B0B0B"/>
	<path d="M562.805 617.448C582.94 662.581 620.761 689.519 647.281 677.616C673.802 665.713 678.979 619.477 658.844 574.345C638.71 529.212 599.751 499.844 573.23 511.747C546.71 523.65 542.671 572.316 562.805 617.448Z" fill="#0B0B0B"/>
	<g filter="url(#filter3_i_3_485)">
		<ellipse cx="37.0157" cy="64.6943" rx="37.0157" ry="64.6943" transform="matrix(-0.907858 0.419439 0.394517 0.918869 618.382 522.057)" fill="url(#paint1_linear_3_485)"/>
	</g>
	<g filter="url(#filter4_di_3_485)">
		<path fill-rule="evenodd" clip-rule="evenodd" d="M585.46 608.584C595.841 632.668 615.218 647.14 628.922 641.103L619.158 618.798C612.55 621.406 603.413 614.604 598.323 603.274L585.46 608.584ZM584.055 605.117C575.444 582.442 578.158 560.055 590.53 553.406L600.291 575.702C594.646 579.024 593.297 589.225 596.944 599.797L584.055 605.117ZM621.708 589.574C617.18 580.247 609.912 574.276 603.885 574.622L593.998 552.036C607.267 548.523 624.722 562.166 634.62 584.244L621.708 589.574ZM623.189 593.009L636.075 587.69C644.686 609.403 642.893 631.091 632.157 639.2L622.265 616.605C626.338 612.063 626.819 602.591 623.189 593.009Z" fill="#464646"/>
	</g>
	<path fill-rule="evenodd" clip-rule="evenodd" d="M239.056 347.431L278.289 337.285L278.293 337.302C278.546 337.232 278.802 337.165 279.058 337.102C302.369 331.381 329.095 358.92 338.754 398.611C348.413 438.302 337.346 475.116 314.036 480.836C313.752 480.906 313.467 480.971 313.182 481.031L275.232 490.867L263.628 444.858C259.777 437.188 256.594 428.589 254.34 419.328C252.262 410.788 251.143 402.381 250.899 394.389L239.056 347.431Z" fill="#0B0B0B"/>
	<ellipse cx="43.4874" cy="73.8594" rx="43.4874" ry="73.8594" transform="matrix(-0.970558 0.238188 0.236603 0.972266 282.346 336.908)" fill="#0B0B0B"/>
	<g filter="url(#filter5_i_3_485)">
		<ellipse cx="32.617" cy="55.3971" rx="32.617" ry="55.3971" transform="matrix(-0.970558 0.238188 0.236603 0.972266 274.944 357.254)" fill="url(#paint2_linear_3_485)"/>
	</g>
	<g filter="url(#filter6_di_3_485)">
		<path fill-rule="evenodd" clip-rule="evenodd" d="M263.982 379.641C268.403 383.268 272.504 388.396 275.887 394.617L263.552 409.165C262.37 407.123 260.987 405.413 259.503 404.139L263.982 379.641ZM253.893 434.822C256.037 436.402 258.345 437.073 260.53 436.537C260.77 436.478 261.005 436.405 261.235 436.319L270.523 462.464C269.483 462.971 268.394 463.368 267.259 463.647C261.412 465.082 255.222 463.163 249.518 458.745L253.893 434.822ZM248.607 458.015L252.983 434.088C251.357 432.661 249.855 430.71 248.613 428.374L236.548 442.604C239.951 449.007 244.11 454.288 248.607 458.015ZM258.59 403.42L263.07 378.918C257.407 374.58 251.271 372.705 245.474 374.127C243.853 374.525 242.327 375.164 240.903 376.02L250.317 402.518C250.865 402.191 251.452 401.947 252.075 401.794C254.218 401.268 256.481 401.903 258.59 403.42ZM230.059 425.344C231.499 431.263 233.55 436.748 236.035 441.619L248.11 427.377C247.281 425.643 246.592 423.724 246.092 421.671C245.961 421.131 245.846 420.594 245.746 420.059L229.206 421.407C229.454 422.712 229.738 424.025 230.059 425.344ZM264.082 410.129L276.407 395.593C279.023 400.603 281.178 406.283 282.674 412.431C282.961 413.61 283.219 414.786 283.447 415.955L266.666 417.322C266.617 417.102 266.566 416.881 266.512 416.66C265.932 414.275 265.097 412.072 264.082 410.129ZM229.019 420.39C227.507 411.816 227.546 403.608 228.906 396.53L245.595 410.76C245.152 413.247 245.123 416.079 245.573 419.041L229.019 420.39ZM266.872 418.338C267.489 421.679 267.5 424.884 266.994 427.656L283.696 441.898C285.206 434.561 285.275 425.961 283.639 416.972L266.872 418.338ZM283.448 443.037L266.751 428.8C265.944 432.083 264.36 434.633 262.17 435.881L271.442 461.981C277.256 458.69 281.419 451.842 283.448 443.037ZM229.141 395.379L245.834 409.613C246.51 406.81 247.748 404.533 249.446 403.134L240.015 376.59C234.732 380.211 230.97 386.93 229.141 395.379Z" fill="#4C4C4C"/>
	</g>
	<path fill-rule="evenodd" clip-rule="evenodd" d="M238.946 348.454L278.179 338.309L278.184 338.329C278.423 338.263 278.665 338.2 278.907 338.141C302.217 332.42 328.944 359.958 338.603 399.649C348.261 439.341 337.194 476.154 313.884 481.875C313.572 481.952 313.259 482.022 312.945 482.087L275.123 491.89L263.568 446.077C259.675 438.362 256.46 429.7 254.189 420.366C252.093 411.754 250.973 403.277 250.742 395.223L238.946 348.454Z" fill="#0B0B0B"/>
	<ellipse cx="43.9706" cy="74.6801" rx="43.9706" ry="74.6801" transform="matrix(-0.970558 0.238188 0.236603 0.972266 282.5 336.157)" fill="#0B0B0B"/>
	<g filter="url(#filter7_i_3_485)">
		<g filter="url(#filter8_i_3_485)">
			<path d="M225.65 433.117C234.642 461.277 255.026 480.112 271.181 475.187C287.335 470.263 293.142 443.443 284.151 415.284C275.159 387.125 254.775 368.289 238.62 373.214C222.466 378.138 216.659 404.958 225.65 433.117Z" fill="url(#paint3_linear_3_485)"/>
		</g>
		<g filter="url(#filter9_di_3_485)">
			<path fill-rule="evenodd" clip-rule="evenodd" d="M232.185 430.035C237.956 450.891 252.227 465.315 264.233 462.477L258.775 443.079C253.037 444.165 246.339 437.409 243.454 427.611L232.185 430.035ZM231.404 426.942C226.947 407.429 231.792 389.784 242.767 386.182L248.227 405.588C243.213 407.489 240.927 415.493 242.695 424.513L231.404 426.942ZM264.36 419.853C261.703 411.66 256.379 405.787 251.35 405.213L245.822 385.567C257.203 384.645 270.039 398.179 275.638 417.427L264.36 419.853ZM265.204 422.932L276.46 420.511C281.002 439.243 276.974 456.435 267.161 461.406L261.635 441.767C265.537 438.715 267.057 431.172 265.204 422.932Z" fill="url(#paint4_linear_3_485)"/>
		</g>
	</g>
	<g filter="url(#filter10_ii_3_485)">
		<path fill-rule="evenodd" clip-rule="evenodd" d="M825.311 325.82C827.236 326.986 828.942 327.79 830.436 328.19C846.967 332.614 985.439 408.551 1015.63 439.066C1045.01 468.762 1043.38 486.512 1042.62 494.752C1042.51 495.942 1042.42 496.934 1042.45 497.734C1042.56 501.727 1042.53 509.762 1042.49 519.986C1042.47 526.006 1042.45 532.786 1042.45 539.946L1042.45 564.272C1042.39 566.089 1042.4 567.943 1042.41 569.836C1042.44 577.875 1042.48 586.616 1037.55 596.192C1031.47 607.997 1002.14 651.283 859.781 695.998C811.519 711.158 755.456 694.321 719.701 679.507C703.763 673.57 691.955 667.848 686.829 665.27C686.096 664.901 685.621 664.217 685.509 663.413C685.279 663.295 685.067 663.186 684.873 663.087C683.959 650.773 680.997 633.158 676.628 615.598C671.842 597.394 665.564 579.42 658.681 567.652C642.332 539.7 607.533 505.225 580.17 514.671C549.115 525.39 551.5 570.04 552.097 580.702C552.272 583.838 552.636 585.928 552.995 587.994C553.51 590.958 554.016 593.87 553.944 599.742C553.941 599.972 553.908 600.192 553.848 600.398C553.833 600.927 553.812 601.488 553.785 602.084L552.957 601.656C552.249 602.17 551.268 602.305 550.382 601.851L306.116 476.913C305.428 476.561 304.938 475.911 304.819 475.148C303.961 469.646 303.977 463.151 303.996 455.851C304.044 436.945 304.105 412.645 289.015 386.245C275.222 362.114 255.128 346.141 236.886 351.865C218.644 357.589 213.683 377.232 212.688 388.172C211.711 398.915 212.292 408.774 212.629 414.493V414.493V414.494C212.764 416.795 212.86 418.425 212.799 419.172C212.587 421.776 186.321 399.18 184.633 390.571C179.494 364.367 178.423 339.83 181.12 313.233C181.578 308.718 183.286 297.058 184.525 293.112C184.635 292.76 184.687 292.401 184.662 292.033C184.025 282.902 185.63 269.117 188.172 263.336C188.395 262.827 188.613 262.292 188.842 261.73C191.513 255.169 195.683 244.923 227.826 230.552C273.466 210.145 397.744 164.717 402.552 163.655C413.914 161.147 428.466 162.224 440.247 163.097C447.16 163.609 453.118 164.05 456.918 163.655C511.797 157.945 575.416 165.519 659.36 207.851C670.596 212.619 681.706 218.058 692.464 224.268C719.299 239.756 741.914 256.2 760.727 271.338C782.745 288.152 799.719 303.271 811.9 314.12C817.308 318.937 821.771 322.912 825.311 325.82Z" fill="url(#paint5_linear_3_485)"/>
	</g>
	<g filter="url(#filter11_ddi_3_485)">
		<path d="M604.941 420.489C574.177 407.757 556.994 365.73 509.853 316.66C509.24 316.022 509.454 314.954 510.275 314.624L701.121 237.993C701.307 237.918 701.496 237.888 701.692 237.926C704.181 238.403 723.29 243.457 778.894 292.342C806.036 316.204 811.469 322.419 825.492 331.867C827.71 333.362 827.324 336.652 819.177 343.366C793.204 364.769 650.077 439.168 604.941 420.489Z" fill="url(#paint6_linear_3_485)"/>
	</g>
	<g filter="url(#filter12_di_3_485)">
		<path d="M389.677 259.765C349.555 247.141 343.893 248.314 313.083 248.314C293.993 248.314 262.213 247.251 258.912 255.83C255.61 264.409 292.246 291.354 307.41 299.743C314.821 303.843 570.503 431.949 562.373 416.809C552.356 398.155 506.253 344.871 490.508 323.113C464.256 286.836 429.799 272.39 389.677 259.765Z" fill="url(#paint7_linear_3_485)"/>
	</g>
	<g filter="url(#filter13_di_3_485)">
		<path d="M298.751 234.508L467.076 165.965C467.076 165.965 463.303 167.295 442.649 166.991C435.441 166.885 260.745 238.682 259.469 239.804L298.751 234.508Z" fill="url(#paint8_linear_3_485)"/>
	</g>
	<g filter="url(#filter14_f_3_485)">
		<path d="M682.292 512.908C617.648 482.865 581.325 445.151 542.381 410.678C658.354 445.058 901.093 520.292 897.29 525.188C892.536 531.308 875.102 538.568 817.172 542.473C760.139 546.318 689.694 516.348 682.292 512.908Z" fill="url(#paint9_linear_3_485)" fill-opacity="0.21"/>
	</g>
	<g filter="url(#filter15_di_3_485)">
		<path d="M452.306 422.202C452.306 421.724 452.033 421.288 451.604 421.08L427.432 409.326C426.606 408.924 425.646 409.525 425.646 410.445L425.646 416.372C425.646 416.85 425.92 417.287 426.35 417.495L450.522 429.202C451.348 429.602 452.306 429 452.306 428.082L452.306 422.202Z" fill="#888888"/>
	</g>
	<g filter="url(#filter16_di_3_485)">
		<path d="M328.597 367.631C328.597 367.153 328.324 366.717 327.895 366.508L303.723 354.754C302.897 354.353 301.937 354.954 301.937 355.873L301.937 361.8C301.937 362.279 302.211 362.716 302.641 362.924L326.813 374.63C327.639 375.03 328.597 374.429 328.597 373.51L328.597 367.631Z" fill="#888888"/>
	</g>
	<path d="M730.845 392.23L583.507 284.911C566.632 289.479 528.231 306.667 520.914 309.415C511.434 312.976 509.858 314.96 509.858 314.96C509.858 317.822 511.319 319.074 515.921 323.546C522.519 329.957 525.312 332.908 541.658 353.774C565.197 383.823 583.107 411.783 600.281 418.492C613.944 423.829 635.253 428.497 665.577 418.492C692.683 409.548 709.368 399.443 730.845 392.23Z" fill="#C4C4C4" fill-opacity="0.2"/>
	<g opacity="0.17" filter="url(#filter17_f_3_485)">
		<path d="M992.129 477.258C951.984 509.017 862.678 554.416 822.803 561.339" stroke="url(#paint10_linear_3_485)" stroke-width="41.0856" stroke-linecap="round" stroke-linejoin="round"/>
	</g>
	<g filter="url(#filter18_dii_3_485)">
		<path d="M1022.75 488.85C1030.54 478.33 1028.32 469.928 1027.18 456.654C1027.17 456.462 1027.12 456.248 1027.06 456.065C1023.41 445.133 1038.26 466.872 1039.81 481.881C1040.31 486.812 1040 489.309 1039.53 493.861C1039.32 495.943 1035.04 508.656 1035.67 511.4C1036.31 514.145 1034.91 533.061 1035.01 535.92C1035.11 538.778 1023.17 560.05 991.801 580.566C965.745 597.608 928.334 608.794 924.499 609.346C920.664 609.897 916.905 597.033 914.121 596.322C906.835 594.462 885.312 602.367 877.277 604.386C867.902 606.743 846.026 612.177 822.118 609.106C792.546 605.307 788.021 601.946 760.836 587.144C741.896 576.831 728.729 556.309 724.653 546.092C724.004 544.464 725.478 543.015 727.146 543.55C744.55 549.13 785.446 564.486 831.981 569.257C897.242 575.948 948.789 544.939 956.173 540.481C987.216 521.743 1003.52 514.815 1022.75 488.85Z" fill="#211F1F"/>
	</g>
	<mask id="mask0_3_485" style="mask-type:alpha" maskUnits="userSpaceOnUse" x="724" y="449" width="320" height="162">
		<path d="M1022.79 488.723C1031.34 477.159 1028.65 462.946 1025.33 452.964C1024.53 450.564 1027.01 449.09 1028.51 451.128C1038.35 464.495 1042.11 476.433 1043.02 482.333C1043.53 487.265 1043.41 490.396 1042.95 494.948C1042.74 497.03 1035.09 508.521 1035.73 511.265C1036.36 514.009 1034.98 532.926 1035.08 535.785C1035.17 538.644 1023.25 559.923 991.896 580.46C965.852 597.52 928.448 608.731 924.613 609.285C920.778 609.839 917.011 596.977 914.227 596.268C906.94 594.412 885.422 602.332 877.389 604.357C868.015 606.72 846.143 612.168 822.233 609.113C792.659 605.334 788.132 601.976 760.938 587.191C741.992 576.891 728.813 556.377 724.73 546.162C724.08 544.535 725.553 543.085 727.222 543.619C744.629 549.188 785.534 564.517 832.071 569.257C897.336 575.905 948.863 544.861 956.244 540.399C987.275 521.64 1003.58 514.701 1022.79 488.723Z" fill="black"/>
		<path d="M1022.79 488.723L1023.19 489.021L1022.79 488.723ZM956.244 540.399L956.503 540.827L956.244 540.399ZM832.071 569.257L832.02 569.755L832.071 569.257ZM760.938 587.191L761.177 586.752L760.938 587.191ZM822.233 609.113L822.297 608.617L822.233 609.113ZM877.389 604.357L877.267 603.872L877.389 604.357ZM914.227 596.268L914.103 596.752L914.227 596.268ZM991.896 580.46L991.622 580.042L991.896 580.46ZM1035.08 535.785L1034.58 535.802L1035.08 535.785ZM1042.95 494.948L1042.45 494.898L1042.45 494.898L1042.95 494.948ZM1043.02 482.333L1043.51 482.257L1043.51 482.27L1043.52 482.282L1043.02 482.333ZM727.222 543.619L727.374 543.143L727.222 543.619ZM724.73 546.162L725.195 545.977L724.73 546.162ZM1025.8 452.806C1029.13 462.811 1031.9 477.243 1023.19 489.021L1022.39 488.426C1030.78 477.074 1028.16 463.082 1024.85 453.122L1025.8 452.806ZM956.503 540.827C949.103 545.3 897.456 576.42 832.02 569.755L832.122 568.76C897.216 575.39 948.622 544.423 955.986 539.971L956.503 540.827ZM832.02 569.755C785.418 565.008 744.452 549.656 727.07 544.095L727.374 543.143C744.806 548.72 785.65 564.026 832.122 568.76L832.02 569.755ZM725.195 545.977C727.215 551.032 731.503 558.672 737.65 566.332C743.797 573.991 751.779 581.643 761.177 586.752L760.699 587.63C751.15 582.439 743.071 574.684 736.87 566.958C730.671 559.232 726.328 551.508 724.266 546.348L725.195 545.977ZM761.177 586.752C774.793 594.154 782.684 598.667 790.872 601.812C799.044 604.951 807.522 606.729 822.297 608.617L822.17 609.609C807.37 607.718 798.798 605.927 790.514 602.746C782.247 599.571 774.277 595.012 760.699 587.63L761.177 586.752ZM822.297 608.617C846.105 611.659 867.897 606.234 877.267 603.872L877.511 604.842C868.133 607.206 846.181 612.677 822.17 609.609L822.297 608.617ZM877.267 603.872C879.26 603.37 882.096 602.5 885.363 601.5C888.623 600.502 892.3 599.378 895.955 598.375C899.609 597.373 903.253 596.488 906.446 595.971C909.62 595.457 912.42 595.292 914.35 595.783L914.103 596.752C912.389 596.316 909.768 596.446 906.606 596.958C903.465 597.467 899.86 598.341 896.22 599.34C892.581 600.338 888.917 601.458 885.655 602.456C882.4 603.452 879.535 604.332 877.511 604.842L877.267 603.872ZM914.35 595.783C914.845 595.909 915.291 596.28 915.687 596.719C916.093 597.17 916.501 597.757 916.91 598.415C917.724 599.728 918.59 601.411 919.465 603.01C920.35 604.629 921.248 606.169 922.15 607.267C922.601 607.816 923.034 608.231 923.447 608.491C923.855 608.749 924.214 608.837 924.541 608.79L924.684 609.78C924.053 609.871 923.456 609.679 922.913 609.337C922.374 608.997 921.863 608.492 921.378 607.902C920.408 606.722 919.471 605.106 918.587 603.49C917.693 601.855 916.855 600.224 916.06 598.942C915.664 598.304 915.292 597.774 914.944 597.388C914.585 596.99 914.304 596.804 914.103 596.752L914.35 595.783ZM924.541 608.79C925.453 608.658 928.47 607.868 932.932 606.469C937.375 605.077 943.214 603.094 949.747 600.595C962.818 595.596 978.643 588.544 991.622 580.042L992.17 580.878C979.105 589.436 963.205 596.519 950.104 601.529C943.551 604.035 937.693 606.025 933.231 607.424C928.787 608.816 925.69 609.635 924.684 609.78L924.541 608.79ZM991.622 580.042C1007.26 569.801 1018.04 559.38 1024.9 551.173C1028.33 547.069 1030.77 543.521 1032.35 540.831C1033.14 539.485 1033.71 538.359 1034.07 537.489C1034.26 537.053 1034.39 536.689 1034.47 536.397C1034.56 536.096 1034.58 535.904 1034.58 535.802L1035.58 535.768C1035.59 536.023 1035.53 536.333 1035.43 536.668C1035.34 537.012 1035.19 537.417 1035 537.877C1034.61 538.799 1034.02 539.965 1033.21 541.337C1031.6 544.081 1029.12 547.674 1025.66 551.814C1018.74 560.096 1007.89 570.583 992.17 580.878L991.622 580.042ZM1034.58 535.802C1034.53 534.346 1034.85 528.86 1035.1 523.459C1035.23 520.745 1035.34 518.039 1035.38 515.843C1035.4 514.745 1035.4 513.778 1035.38 513.004C1035.35 512.216 1035.31 511.667 1035.24 511.378L1036.21 511.152C1036.31 511.549 1036.35 512.191 1036.38 512.974C1036.4 513.771 1036.4 514.755 1036.38 515.861C1036.34 518.072 1036.23 520.79 1036.1 523.505C1035.85 528.963 1035.53 534.365 1035.58 535.768L1034.58 535.802ZM1035.24 511.378C1035.13 510.913 1035.21 510.336 1035.36 509.738C1035.52 509.123 1035.78 508.415 1036.1 507.656C1036.74 506.138 1037.65 504.362 1038.58 502.623C1039.51 500.871 1040.46 499.171 1041.2 497.759C1041.56 497.056 1041.87 496.437 1042.09 495.933C1042.32 495.411 1042.43 495.07 1042.45 494.898L1043.45 494.998C1043.41 495.347 1043.24 495.821 1043.01 496.336C1042.77 496.87 1042.45 497.512 1042.08 498.221C1041.35 499.635 1040.38 501.37 1039.46 503.094C1038.53 504.831 1037.64 506.572 1037.02 508.045C1036.71 508.782 1036.47 509.438 1036.33 509.985C1036.19 510.549 1036.16 510.931 1036.21 511.152L1035.24 511.378ZM1042.45 494.898C1042.91 490.37 1043.03 487.274 1042.52 482.385L1043.52 482.282C1044.03 487.255 1043.91 490.422 1043.45 494.998L1042.45 494.898ZM1042.52 482.409C1041.63 476.594 1037.9 464.73 1028.11 451.424L1028.91 450.832C1038.79 464.259 1042.6 476.273 1043.51 482.257L1042.52 482.409ZM1023.19 489.021C1003.9 515.097 987.496 522.091 956.503 540.827L955.986 539.971C987.054 521.189 1003.25 514.305 1022.39 488.426L1023.19 489.021ZM727.07 544.095C726.409 543.884 725.821 544.07 725.461 544.433C725.106 544.791 724.943 545.349 725.195 545.977L724.266 546.348C723.867 545.349 724.116 544.368 724.751 543.728C725.383 543.092 726.365 542.82 727.374 543.143L727.07 544.095ZM1024.85 453.122C1024.39 451.737 1024.86 450.503 1025.8 449.95C1026.77 449.386 1028.04 449.642 1028.91 450.832L1028.11 451.424C1027.48 450.576 1026.76 450.55 1026.31 450.813C1025.84 451.088 1025.46 451.791 1025.8 452.806L1024.85 453.122Z" fill="black"/>
	</mask>
	<g mask="url(#mask0_3_485)">
		<g filter="url(#filter19_d_3_485)">
			<path d="M861.369 552.892L862.734 552.272L862.342 551.406L861.391 551.392L769.254 550.004L766.541 549.963L767.95 552.283L769.232 551.504C767.95 552.283 767.95 552.283 767.95 552.283L767.95 552.284L767.952 552.287L767.958 552.297L767.982 552.336L768.073 552.484C768.152 552.613 768.27 552.803 768.421 553.046C768.724 553.532 769.164 554.232 769.716 555.089C770.818 556.804 772.368 559.154 774.157 561.695C777.698 566.725 782.298 572.685 786.259 575.843C793.373 581.514 802.295 584.76 810.9 586.392C819.51 588.026 827.911 588.066 834.081 587.238C844.239 585.875 851.221 583.086 855.937 579.555C860.678 576.006 863.052 571.762 864.069 567.672C865.078 563.614 864.737 559.77 864.164 556.971C863.876 555.566 863.525 554.407 863.245 553.594C863.104 553.187 862.981 552.866 862.89 552.641C862.845 552.529 862.808 552.441 862.782 552.379C862.768 552.348 862.757 552.324 862.75 552.306L862.74 552.284L862.737 552.277L862.735 552.274C862.735 552.273 862.734 552.272 861.369 552.892Z" stroke="white" stroke-width="3"/>
		</g>
		<g filter="url(#filter20_d_3_485)">
			<path d="M1027.4 460.965C1027.46 461.078 1027.53 461.195 1027.6 461.317C1028.41 462.754 1029.43 464.826 1030.24 467.353C1031.84 472.405 1032.58 479.212 1029.22 486.45C1028.25 488.527 1026.87 489.935 1025.43 490.518C1024.07 491.066 1022.46 490.972 1020.66 489.616C1019.52 488.747 1017.91 488.391 1016.41 488.241C1014.86 488.086 1013.16 488.129 1011.61 488.247C1010.77 488.311 1009.96 488.397 1009.23 488.49L1027.4 460.965Z" stroke="url(#paint11_linear_3_485)" stroke-width="3"/>
		</g>
	</g>
	<g filter="url(#filter21_f_3_485)">
		<path d="M555.838 507.821L302.972 388.339C318.138 417.056 315.355 449.286 314.759 462.747L535.467 575.671C535.467 537.382 546.777 511.56 555.838 507.821Z" fill="url(#paint12_linear_3_485)"/>
	</g>
	<defs>
		<filter id="filter0_f_3_485" x="133.583" y="323.431" width="937.895" height="437.001" filterUnits="userSpaceOnUse" color-interpolation-filters="sRGB">
			<feFlood flood-opacity="0" result="BackgroundImageFix"/>
			<feBlend mode="normal" in="SourceGraphic" in2="BackgroundImageFix" result="shape"/>
			<feGaussianBlur stdDeviation="8.67815" result="effect1_foregroundBlur_3_485"/>
		</filter>
		<filter id="filter1_i_3_485" x="564.62" y="533.627" width="90.4447" height="126.808" filterUnits="userSpaceOnUse" color-interpolation-filters="sRGB">
			<feFlood flood-opacity="0" result="BackgroundImageFix"/>
			<feBlend mode="normal" in="SourceGraphic" in2="BackgroundImageFix" result="shape"/>
			<feColorMatrix in="SourceAlpha" type="matrix" values="0 0 0 0 0 0 0 0 0 0 0 0 0 0 0 0 0 0 127 0" result="hardAlpha"/>
			<feMorphology radius="0.622509" operator="erode" in="SourceAlpha" result="effect1_innerShadow_3_485"/>
			<feOffset/>
			<feGaussianBlur stdDeviation="0.311254"/>
			<feComposite in2="hardAlpha" operator="arithmetic" k2="-1" k3="1"/>
			<feColorMatrix type="matrix" values="0 0 0 0 0 0 0 0 0 0 0 0 0 0 0 0 0 0 0.25 0"/>
			<feBlend mode="normal" in2="shape" result="effect1_innerShadow_3_485"/>
		</filter>
		<filter id="filter2_di_3_485" x="570.373" y="544.213" width="77.4031" height="106.75" filterUnits="userSpaceOnUse" color-interpolation-filters="sRGB">
			<feFlood flood-opacity="0" result="BackgroundImageFix"/>
			<feColorMatrix in="SourceAlpha" type="matrix" values="0 0 0 0 0 0 0 0 0 0 0 0 0 0 0 0 0 0 127 0" result="hardAlpha"/>
			<feOffset dy="0.249004"/>
			<feGaussianBlur stdDeviation="0.186753"/>
			<feColorMatrix type="matrix" values="0 0 0 0 1 0 0 0 0 1 0 0 0 0 1 0 0 0 0.41 0"/>
			<feBlend mode="normal" in2="BackgroundImageFix" result="effect1_dropShadow_3_485"/>
			<feBlend mode="normal" in="SourceGraphic" in2="effect1_dropShadow_3_485" result="shape"/>
			<feColorMatrix in="SourceAlpha" type="matrix" values="0 0 0 0 0 0 0 0 0 0 0 0 0 0 0 0 0 0 127 0" result="hardAlpha"/>
			<feOffset dx="-1.86753" dy="1.24502"/>
			<feGaussianBlur stdDeviation="0.933763"/>
			<feComposite in2="hardAlpha" operator="arithmetic" k2="-1" k3="1"/>
			<feColorMatrix type="matrix" values="0 0 0 0 0 0 0 0 0 0 0 0 0 0 0 0 0 0 0.25 0"/>
			<feBlend mode="normal" in2="shape" result="effect2_innerShadow_3_485"/>
		</filter>
		<filter id="filter3_i_3_485" x="568.099" y="535.574" width="84.4017" height="122.909" filterUnits="userSpaceOnUse" color-interpolation-filters="sRGB">
			<feFlood flood-opacity="0" result="BackgroundImageFix"/>
			<feBlend mode="normal" in="SourceGraphic" in2="BackgroundImageFix" result="shape"/>
			<feColorMatrix in="SourceAlpha" type="matrix" values="0 0 0 0 0 0 0 0 0 0 0 0 0 0 0 0 0 0 127 0" result="hardAlpha"/>
			<feMorphology radius="0.45706" operator="erode" in="SourceAlpha" result="effect1_innerShadow_3_485"/>
			<feOffset/>
			<feGaussianBlur stdDeviation="0.22853"/>
			<feComposite in2="hardAlpha" operator="arithmetic" k2="-1" k3="1"/>
			<feColorMatrix type="matrix" values="0 0 0 0 0 0 0 0 0 0 0 0 0 0 0 0 0 0 0.25 0"/>
			<feBlend mode="normal" in2="shape" result="effect1_innerShadow_3_485"/>
		</filter>
		<filter id="filter4_di_3_485" x="577.181" y="551.363" width="64.7209" height="92.3552" filterUnits="userSpaceOnUse" color-interpolation-filters="sRGB">
			<feFlood flood-opacity="0" result="BackgroundImageFix"/>
			<feColorMatrix in="SourceAlpha" type="matrix" values="0 0 0 0 0 0 0 0 0 0 0 0 0 0 0 0 0 0 127 0" result="hardAlpha"/>
			<feOffset dy="0.249003"/>
			<feGaussianBlur stdDeviation="0.186753"/>
			<feColorMatrix type="matrix" values="0 0 0 0 1 0 0 0 0 1 0 0 0 0 1 0 0 0 0.41 0"/>
			<feBlend mode="normal" in2="BackgroundImageFix" result="effect1_dropShadow_3_485"/>
			<feBlend mode="normal" in="SourceGraphic" in2="effect1_dropShadow_3_485" result="shape"/>
			<feColorMatrix in="SourceAlpha" type="matrix" values="0 0 0 0 0 0 0 0 0 0 0 0 0 0 0 0 0 0 127 0" result="hardAlpha"/>
			<feOffset dx="-1.86753" dy="1.24502"/>
			<feGaussianBlur stdDeviation="0.933763"/>
			<feComposite in2="hardAlpha" operator="arithmetic" k2="-1" k3="1"/>
			<feColorMatrix type="matrix" values="0 0 0 0 0 0 0 0 0 0 0 0 0 0 0 0 0 0 0.25 0"/>
			<feBlend mode="normal" in2="shape" result="effect2_innerShadow_3_485"/>
		</filter>
		<filter id="filter5_i_3_485" x="222.122" y="364.458" width="68.5437" height="108.85" filterUnits="userSpaceOnUse" color-interpolation-filters="sRGB">
			<feFlood flood-opacity="0" result="BackgroundImageFix"/>
			<feBlend mode="normal" in="SourceGraphic" in2="BackgroundImageFix" result="shape"/>
			<feColorMatrix in="SourceAlpha" type="matrix" values="0 0 0 0 0 0 0 0 0 0 0 0 0 0 0 0 0 0 127 0" result="hardAlpha"/>
			<feMorphology radius="0.514076" operator="erode" in="SourceAlpha" result="effect1_innerShadow_3_485"/>
			<feOffset/>
			<feGaussianBlur stdDeviation="0.257038"/>
			<feComposite in2="hardAlpha" operator="arithmetic" k2="-1" k3="1"/>
			<feColorMatrix type="matrix" values="0 0 0 0 0 0 0 0 0 0 0 0 0 0 0 0 0 0 0.25 0"/>
			<feBlend mode="normal" in2="shape" result="effect1_innerShadow_3_485"/>
		</filter>
		<filter id="filter6_di_3_485" x="226.343" y="373.556" width="58.8125" height="91.5887" filterUnits="userSpaceOnUse" color-interpolation-filters="sRGB">
			<feFlood flood-opacity="0" result="BackgroundImageFix"/>
			<feColorMatrix in="SourceAlpha" type="matrix" values="0 0 0 0 0 0 0 0 0 0 0 0 0 0 0 0 0 0 127 0" result="hardAlpha"/>
			<feOffset dy="0.20563"/>
			<feGaussianBlur stdDeviation="0.154223"/>
			<feColorMatrix type="matrix" values="0 0 0 0 1 0 0 0 0 1 0 0 0 0 1 0 0 0 0.41 0"/>
			<feBlend mode="normal" in2="BackgroundImageFix" result="effect1_dropShadow_3_485"/>
			<feBlend mode="normal" in="SourceGraphic" in2="effect1_dropShadow_3_485" result="shape"/>
			<feColorMatrix in="SourceAlpha" type="matrix" values="0 0 0 0 0 0 0 0 0 0 0 0 0 0 0 0 0 0 127 0" result="hardAlpha"/>
			<feOffset dx="-1.54223" dy="1.02815"/>
			<feGaussianBlur stdDeviation="0.771114"/>
			<feComposite in2="hardAlpha" operator="arithmetic" k2="-1" k3="1"/>
			<feColorMatrix type="matrix" values="0 0 0 0 0 0 0 0 0 0 0 0 0 0 0 0 0 0 0.25 0"/>
			<feBlend mode="normal" in2="shape" result="effect2_innerShadow_3_485"/>
		</filter>
		<filter id="filter7_i_3_485" x="221.419" y="372.431" width="66.9635" height="103.538" filterUnits="userSpaceOnUse" color-interpolation-filters="sRGB">
			<feFlood flood-opacity="0" result="BackgroundImageFix"/>
			<feBlend mode="normal" in="SourceGraphic" in2="BackgroundImageFix" result="shape"/>
			<feColorMatrix in="SourceAlpha" type="matrix" values="0 0 0 0 0 0 0 0 0 0 0 0 0 0 0 0 0 0 127 0" result="hardAlpha"/>
			<feMorphology radius="0.45706" operator="erode" in="SourceAlpha" result="effect1_innerShadow_3_485"/>
			<feOffset/>
			<feGaussianBlur stdDeviation="0.22853"/>
			<feComposite in2="hardAlpha" operator="arithmetic" k2="-1" k3="1"/>
			<feColorMatrix type="matrix" values="0 0 0 0 0 0 0 0 0 0 0 0 0 0 0 0 0 0 0.25 0"/>
			<feBlend mode="normal" in2="shape" result="effect1_innerShadow_3_485"/>
		</filter>
		<filter id="filter8_i_3_485" x="221.419" y="372.431" width="66.9635" height="103.538" filterUnits="userSpaceOnUse" color-interpolation-filters="sRGB">
			<feFlood flood-opacity="0" result="BackgroundImageFix"/>
			<feBlend mode="normal" in="SourceGraphic" in2="BackgroundImageFix" result="shape"/>
			<feColorMatrix in="SourceAlpha" type="matrix" values="0 0 0 0 0 0 0 0 0 0 0 0 0 0 0 0 0 0 127 0" result="hardAlpha"/>
			<feOffset/>
			<feGaussianBlur stdDeviation="0.231331"/>
			<feComposite in2="hardAlpha" operator="arithmetic" k2="-1" k3="1"/>
			<feColorMatrix type="matrix" values="0 0 0 0 0 0 0 0 0 0 0 0 0 0 0 0 0 0 0.25 0"/>
			<feBlend mode="normal" in2="shape" result="effect1_innerShadow_3_485"/>
		</filter>
		<filter id="filter9_di_3_485" x="227.888" y="385.399" width="50.8066" height="78.6799" filterUnits="userSpaceOnUse" color-interpolation-filters="sRGB">
			<feFlood flood-opacity="0" result="BackgroundImageFix"/>
			<feColorMatrix in="SourceAlpha" type="matrix" values="0 0 0 0 0 0 0 0 0 0 0 0 0 0 0 0 0 0 127 0" result="hardAlpha"/>
			<feOffset dy="0.249004"/>
			<feGaussianBlur stdDeviation="0.186753"/>
			<feColorMatrix type="matrix" values="0 0 0 0 1 0 0 0 0 1 0 0 0 0 1 0 0 0 0.41 0"/>
			<feBlend mode="normal" in2="BackgroundImageFix" result="effect1_dropShadow_3_485"/>
			<feBlend mode="normal" in="SourceGraphic" in2="effect1_dropShadow_3_485" result="shape"/>
			<feColorMatrix in="SourceAlpha" type="matrix" values="0 0 0 0 0 0 0 0 0 0 0 0 0 0 0 0 0 0 127 0" result="hardAlpha"/>
			<feOffset dx="-1.86753" dy="1.24502"/>
			<feGaussianBlur stdDeviation="0.933763"/>
			<feComposite in2="hardAlpha" operator="arithmetic" k2="-1" k3="1"/>
			<feColorMatrix type="matrix" values="0 0 0 0 0 0 0 0 0 0 0 0 0 0 0 0 0 0 0.25 0"/>
			<feBlend mode="normal" in2="shape" result="effect2_innerShadow_3_485"/>
		</filter>
		<filter id="filter10_ii_3_485" x="179.686" y="157.006" width="866.981" height="544.948" filterUnits="userSpaceOnUse" color-interpolation-filters="sRGB">
			<feFlood flood-opacity="0" result="BackgroundImageFix"/>
			<feBlend mode="normal" in="SourceGraphic" in2="BackgroundImageFix" result="shape"/>
			<feColorMatrix in="SourceAlpha" type="matrix" values="0 0 0 0 0 0 0 0 0 0 0 0 0 0 0 0 0 0 127 0" result="hardAlpha"/>
			<feOffset dx="3.73505" dy="-4.98007"/>
			<feGaussianBlur stdDeviation="14.9402"/>
			<feComposite in2="hardAlpha" operator="arithmetic" k2="-1" k3="1"/>
			<feColorMatrix type="matrix" values="0 0 0 0 0 0 0 0 0 0 0 0 0 0 0 0 0 0 0.07 0"/>
			<feBlend mode="normal" in2="shape" result="effect1_innerShadow_3_485"/>
			<feColorMatrix in="SourceAlpha" type="matrix" values="0 0 0 0 0 0 0 0 0 0 0 0 0 0 0 0 0 0 127 0" result="hardAlpha"/>
			<feOffset dy="-0.622509"/>
			<feGaussianBlur stdDeviation="1.24502"/>
			<feComposite in2="hardAlpha" operator="arithmetic" k2="-1" k3="1"/>
			<feColorMatrix type="matrix" values="0 0 0 0 0 0 0 0 0 0 0 0 0 0 0 0 0 0 0.25 0"/>
			<feBlend mode="normal" in2="effect1_innerShadow_3_485" result="effect2_innerShadow_3_485"/>
		</filter>
		<filter id="filter11_ddi_3_485" x="507.01" y="236.042" width="320.887" height="189.294" filterUnits="userSpaceOnUse" color-interpolation-filters="sRGB">
			<feFlood flood-opacity="0" result="BackgroundImageFix"/>
			<feColorMatrix in="SourceAlpha" type="matrix" values="0 0 0 0 0 0 0 0 0 0 0 0 0 0 0 0 0 0 127 0" result="hardAlpha"/>
			<feOffset dx="-1.24502" dy="0.622509"/>
			<feGaussianBlur stdDeviation="0.622509"/>
			<feColorMatrix type="matrix" values="0 0 0 0 1 0 0 0 0 1 0 0 0 0 1 0 0 0 0.28 0"/>
			<feBlend mode="normal" in2="BackgroundImageFix" result="effect1_dropShadow_3_485"/>
			<feColorMatrix in="SourceAlpha" type="matrix" values="0 0 0 0 0 0 0 0 0 0 0 0 0 0 0 0 0 0 127 0" result="hardAlpha"/>
			<feOffset dy="-0.622509"/>
			<feGaussianBlur stdDeviation="0.622509"/>
			<feColorMatrix type="matrix" values="0 0 0 0 1 0 0 0 0 1 0 0 0 0 1 0 0 0 0.56 0"/>
			<feBlend mode="normal" in2="effect1_dropShadow_3_485" result="effect2_dropShadow_3_485"/>
			<feBlend mode="normal" in="SourceGraphic" in2="effect2_dropShadow_3_485" result="shape"/>
			<feColorMatrix in="SourceAlpha" type="matrix" values="0 0 0 0 0 0 0 0 0 0 0 0 0 0 0 0 0 0 127 0" result="hardAlpha"/>
			<feOffset dx="-0.622509" dy="1.86753"/>
			<feGaussianBlur stdDeviation="0.933763"/>
			<feComposite in2="hardAlpha" operator="arithmetic" k2="-1" k3="1"/>
			<feColorMatrix type="matrix" values="0 0 0 0 0 0 0 0 0 0 0 0 0 0 0 0 0 0 0.75 0"/>
			<feBlend mode="normal" in2="shape" result="effect3_innerShadow_3_485"/>
		</filter>
		<filter id="filter12_di_3_485" x="256.212" y="248.272" width="306.994" height="172.269" filterUnits="userSpaceOnUse" color-interpolation-filters="sRGB">
			<feFlood flood-opacity="0" result="BackgroundImageFix"/>
			<feColorMatrix in="SourceAlpha" type="matrix" values="0 0 0 0 0 0 0 0 0 0 0 0 0 0 0 0 0 0 127 0" result="hardAlpha"/>
			<feOffset dy="0.643755"/>
			<feGaussianBlur stdDeviation="0.321877"/>
			<feColorMatrix type="matrix" values="0 0 0 0 0.925374 0 0 0 0 0.925374 0 0 0 0 0.925374 0 0 0 0.37 0"/>
			<feBlend mode="normal" in2="BackgroundImageFix" result="effect1_dropShadow_3_485"/>
			<feBlend mode="normal" in="SourceGraphic" in2="effect1_dropShadow_3_485" result="shape"/>
			<feColorMatrix in="SourceAlpha" type="matrix" values="0 0 0 0 0 0 0 0 0 0 0 0 0 0 0 0 0 0 127 0" result="hardAlpha"/>
			<feOffset dx="-2.49003" dy="3.11254"/>
			<feGaussianBlur stdDeviation="1.24502"/>
			<feComposite in2="hardAlpha" operator="arithmetic" k2="-1" k3="1"/>
			<feColorMatrix type="matrix" values="0 0 0 0 0 0 0 0 0 0 0 0 0 0 0 0 0 0 0.8 0"/>
			<feBlend mode="normal" in2="shape" result="effect2_innerShadow_3_485"/>
		</filter>
		<filter id="filter13_di_3_485" x="256.979" y="165.965" width="210.741" height="76.3289" filterUnits="userSpaceOnUse" color-interpolation-filters="sRGB">
			<feFlood flood-opacity="0" result="BackgroundImageFix"/>
			<feColorMatrix in="SourceAlpha" type="matrix" values="0 0 0 0 0 0 0 0 0 0 0 0 0 0 0 0 0 0 127 0" result="hardAlpha"/>
			<feOffset dy="0.643755"/>
			<feGaussianBlur stdDeviation="0.321877"/>
			<feColorMatrix type="matrix" values="0 0 0 0 0.925374 0 0 0 0 0.925374 0 0 0 0 0.925374 0 0 0 0.37 0"/>
			<feBlend mode="normal" in2="BackgroundImageFix" result="effect1_dropShadow_3_485"/>
			<feBlend mode="normal" in="SourceGraphic" in2="effect1_dropShadow_3_485" result="shape"/>
			<feColorMatrix in="SourceAlpha" type="matrix" values="0 0 0 0 0 0 0 0 0 0 0 0 0 0 0 0 0 0 127 0" result="hardAlpha"/>
			<feOffset dx="-2.49003" dy="3.11254"/>
			<feGaussianBlur stdDeviation="1.24502"/>
			<feComposite in2="hardAlpha" operator="arithmetic" k2="-1" k3="1"/>
			<feColorMatrix type="matrix" values="0 0 0 0 0 0 0 0 0 0 0 0 0 0 0 0 0 0 0.8 0"/>
			<feBlend mode="normal" in2="shape" result="effect2_innerShadow_3_485"/>
		</filter>
		<filter id="filter14_f_3_485" x="524.95" y="393.248" width="389.814" height="166.995" filterUnits="userSpaceOnUse" color-interpolation-filters="sRGB">
			<feFlood flood-opacity="0" result="BackgroundImageFix"/>
			<feBlend mode="normal" in="SourceGraphic" in2="BackgroundImageFix" result="shape"/>
			<feGaussianBlur stdDeviation="8.71512" result="effect1_foregroundBlur_3_485"/>
		</filter>
		<filter id="filter15_di_3_485" x="425.338" y="408.581" width="27.2773" height="22.29" filterUnits="userSpaceOnUse" color-interpolation-filters="sRGB">
			<feFlood flood-opacity="0" result="BackgroundImageFix"/>
			<feColorMatrix in="SourceAlpha" type="matrix" values="0 0 0 0 0 0 0 0 0 0 0 0 0 0 0 0 0 0 127 0" result="hardAlpha"/>
			<feOffset dy="-0.308751"/>
			<feGaussianBlur stdDeviation="0.154375"/>
			<feColorMatrix type="matrix" values="0 0 0 0 0.78755 0 0 0 0 0.78755 0 0 0 0 0.78755 0 0 0 0.19 0"/>
			<feBlend mode="normal" in2="BackgroundImageFix" result="effect1_dropShadow_3_485"/>
			<feBlend mode="normal" in="SourceGraphic" in2="effect1_dropShadow_3_485" result="shape"/>
			<feColorMatrix in="SourceAlpha" type="matrix" values="0 0 0 0 0 0 0 0 0 0 0 0 0 0 0 0 0 0 127 0" result="hardAlpha"/>
			<feOffset dy="1.54375"/>
			<feGaussianBlur stdDeviation="0.771877"/>
			<feComposite in2="hardAlpha" operator="arithmetic" k2="-1" k3="1"/>
			<feColorMatrix type="matrix" values="0 0 0 0 0 0 0 0 0 0 0 0 0 0 0 0 0 0 0.74 0"/>
			<feBlend mode="normal" in2="shape" result="effect2_innerShadow_3_485"/>
		</filter>
		<filter id="filter16_di_3_485" x="301.629" y="354.01" width="27.2773" height="22.29" filterUnits="userSpaceOnUse" color-interpolation-filters="sRGB">
			<feFlood flood-opacity="0" result="BackgroundImageFix"/>
			<feColorMatrix in="SourceAlpha" type="matrix" values="0 0 0 0 0 0 0 0 0 0 0 0 0 0 0 0 0 0 127 0" result="hardAlpha"/>
			<feOffset dy="-0.308751"/>
			<feGaussianBlur stdDeviation="0.154375"/>
			<feColorMatrix type="matrix" values="0 0 0 0 0.78755 0 0 0 0 0.78755 0 0 0 0 0.78755 0 0 0 0.19 0"/>
			<feBlend mode="normal" in2="BackgroundImageFix" result="effect1_dropShadow_3_485"/>
			<feBlend mode="normal" in="SourceGraphic" in2="effect1_dropShadow_3_485" result="shape"/>
			<feColorMatrix in="SourceAlpha" type="matrix" values="0 0 0 0 0 0 0 0 0 0 0 0 0 0 0 0 0 0 127 0" result="hardAlpha"/>
			<feOffset dy="1.54375"/>
			<feGaussianBlur stdDeviation="0.771877"/>
			<feComposite in2="hardAlpha" operator="arithmetic" k2="-1" k3="1"/>
			<feColorMatrix type="matrix" values="0 0 0 0 0 0 0 0 0 0 0 0 0 0 0 0 0 0 0.74 0"/>
			<feBlend mode="normal" in2="shape" result="effect2_innerShadow_3_485"/>
		</filter>
		<filter id="filter17_f_3_485" x="796.031" y="450.49" width="222.867" height="137.621" filterUnits="userSpaceOnUse" color-interpolation-filters="sRGB">
			<feFlood flood-opacity="0" result="BackgroundImageFix"/>
			<feBlend mode="normal" in="SourceGraphic" in2="BackgroundImageFix" result="shape"/>
			<feGaussianBlur stdDeviation="3.11254" result="effect1_foregroundBlur_3_485"/>
		</filter>
		<filter id="filter18_dii_3_485" x="721.005" y="450.192" width="322.552" height="163.905" filterUnits="userSpaceOnUse" color-interpolation-filters="sRGB">
			<feFlood flood-opacity="0" result="BackgroundImageFix"/>
			<feColorMatrix in="SourceAlpha" type="matrix" values="0 0 0 0 0 0 0 0 0 0 0 0 0 0 0 0 0 0 127 0" result="hardAlpha"/>
			<feOffset dy="0.581988"/>
			<feGaussianBlur stdDeviation="1.74596"/>
			<feColorMatrix type="matrix" values="0 0 0 0 0 0 0 0 0 0 0 0 0 0 0 0 0 0 0.85 0"/>
			<feBlend mode="normal" in2="BackgroundImageFix" result="effect1_dropShadow_3_485"/>
			<feBlend mode="normal" in="SourceGraphic" in2="effect1_dropShadow_3_485" result="shape"/>
			<feColorMatrix in="SourceAlpha" type="matrix" values="0 0 0 0 0 0 0 0 0 0 0 0 0 0 0 0 0 0 127 0" result="hardAlpha"/>
			<feOffset dy="0.581988"/>
			<feGaussianBlur stdDeviation="0.581988"/>
			<feComposite in2="hardAlpha" operator="arithmetic" k2="-1" k3="1"/>
			<feColorMatrix type="matrix" values="0 0 0 0 0 0 0 0 0 0 0 0 0 0 0 0 0 0 0.25 0"/>
			<feBlend mode="normal" in2="shape" result="effect2_innerShadow_3_485"/>
			<feColorMatrix in="SourceAlpha" type="matrix" values="0 0 0 0 0 0 0 0 0 0 0 0 0 0 0 0 0 0 127 0" result="hardAlpha"/>
			<feOffset dy="-0.581988"/>
			<feGaussianBlur stdDeviation="0.581988"/>
			<feComposite in2="hardAlpha" operator="arithmetic" k2="-1" k3="1"/>
			<feColorMatrix type="matrix" values="0 0 0 0 0 0 0 0 0 0 0 0 0 0 0 0 0 0 0.25 0"/>
			<feBlend mode="normal" in2="effect2_innerShadow_3_485" result="effect3_innerShadow_3_485"/>
		</filter>
		<filter id="filter19_d_3_485" x="762.924" y="548.423" width="105.451" height="43.9335" filterUnits="userSpaceOnUse" color-interpolation-filters="sRGB">
			<feFlood flood-opacity="0" result="BackgroundImageFix"/>
			<feColorMatrix in="SourceAlpha" type="matrix" values="0 0 0 0 0 0 0 0 0 0 0 0 0 0 0 0 0 0 127 0" result="hardAlpha"/>
			<feOffset dx="0.617501" dy="1.54375"/>
			<feGaussianBlur stdDeviation="0.771877"/>
			<feColorMatrix type="matrix" values="0 0 0 0 1 0 0 0 0 1 0 0 0 0 1 0 0 0 0.24 0"/>
			<feBlend mode="normal" in2="BackgroundImageFix" result="effect1_dropShadow_3_485"/>
			<feBlend mode="normal" in="SourceGraphic" in2="effect1_dropShadow_3_485" result="shape"/>
		</filter>
		<filter id="filter20_d_3_485" x="1006.11" y="458.227" width="28.5593" height="35.6787" filterUnits="userSpaceOnUse" color-interpolation-filters="sRGB">
			<feFlood flood-opacity="0" result="BackgroundImageFix"/>
			<feColorMatrix in="SourceAlpha" type="matrix" values="0 0 0 0 0 0 0 0 0 0 0 0 0 0 0 0 0 0 127 0" result="hardAlpha"/>
			<feOffset dx="0.926252" dy="0.926252"/>
			<feGaussianBlur stdDeviation="0.323923"/>
			<feColorMatrix type="matrix" values="0 0 0 0 1 0 0 0 0 1 0 0 0 0 1 0 0 0 0.24 0"/>
			<feBlend mode="normal" in2="BackgroundImageFix" result="effect1_dropShadow_3_485"/>
			<feBlend mode="normal" in="SourceGraphic" in2="effect1_dropShadow_3_485" result="shape"/>
		</filter>
		<filter id="filter21_f_3_485" x="299.884" y="385.251" width="259.042" height="193.508" filterUnits="userSpaceOnUse" color-interpolation-filters="sRGB">
			<feFlood flood-opacity="0" result="BackgroundImageFix"/>
			<feBlend mode="normal" in="SourceGraphic" in2="BackgroundImageFix" result="shape"/>
			<feGaussianBlur stdDeviation="1.54375" result="effect1_foregroundBlur_3_485"/>
		</filter>
		<linearGradient id="paint0_linear_3_485" x1="93.1577" y1="102.34" x2="97.7959" y2="33.3471" gradientUnits="userSpaceOnUse">
			<stop stop-color="#4F4F4F"/>
			<stop offset="1" stop-color="#5C5C5C"/>
		</linearGradient>
		<linearGradient id="paint1_linear_3_485" x1="87.1045" y1="89.8227" x2="60.9754" y2="-30.0843" gradientUnits="userSpaceOnUse">
			<stop stop-color="#5A5A5A"/>
			<stop offset="1" stop-color="#AEAEAE"/>
		</linearGradient>
		<linearGradient id="paint2_linear_3_485" x1="76.9365" y1="84.5071" x2="80.7659" y2="27.5363" gradientUnits="userSpaceOnUse">
			<stop stop-color="#4F4F4F"/>
			<stop offset="1" stop-color="#5C5C5C"/>
		</linearGradient>
		<linearGradient id="paint3_linear_3_485" x1="221.643" y1="456.071" x2="213.386" y2="355.172" gradientUnits="userSpaceOnUse">
			<stop stop-color="#787878"/>
			<stop offset="1" stop-color="#AEAEAE"/>
		</linearGradient>
		<linearGradient id="paint4_linear_3_485" x1="217.058" y1="432.168" x2="219.086" y2="353.594" gradientUnits="userSpaceOnUse">
			<stop stop-color="#404040"/>
			<stop offset="1" stop-color="#AEAEAE"/>
		</linearGradient>
		<linearGradient id="paint5_linear_3_485" x1="702.266" y1="678.198" x2="970.16" y2="287.131" gradientUnits="userSpaceOnUse">
			<stop stop-color="#2C2C2C"/>
			<stop offset="0.628054" stop-color="#515151"/>
			<stop offset="1" stop-color="#7D7D7D"/>
		</linearGradient>
		<linearGradient id="paint6_linear_3_485" x1="703.279" y1="74.4255" x2="477.916" y2="287.688" gradientUnits="userSpaceOnUse">
			<stop stop-color="#E8EAE9"/>
			<stop offset="0.498386" stop-color="#707072"/>
			<stop offset="1" stop-color="#2F3032"/>
		</linearGradient>
		<linearGradient id="paint7_linear_3_485" x1="333.204" y1="788.684" x2="548.479" y2="395.179" gradientUnits="userSpaceOnUse">
			<stop stop-color="#5B5B5B"/>
			<stop offset="0.498386" stop-color="#707072"/>
			<stop offset="1" stop-color="#2F3032"/>
		</linearGradient>
		<linearGradient id="paint8_linear_3_485" x1="241.364" y1="382.046" x2="361.405" y2="206.337" gradientUnits="userSpaceOnUse">
			<stop stop-color="#E8EAE9"/>
			<stop offset="0.498386" stop-color="#707072"/>
			<stop offset="1" stop-color="#2F3032"/>
		</linearGradient>
		<linearGradient id="paint9_linear_3_485" x1="708.127" y1="550.47" x2="736.093" y2="468.707" gradientUnits="userSpaceOnUse">
			<stop stop-color="#7C5E5E"/>
			<stop offset="1" stop-color="white" stop-opacity="0"/>
		</linearGradient>
		<linearGradient id="paint10_linear_3_485" x1="910.064" y1="560.446" x2="891.209" y2="523.772" gradientUnits="userSpaceOnUse">
			<stop stop-color="#6A6565"/>
			<stop offset="0.899322" stop-opacity="0"/>
		</linearGradient>
		<linearGradient id="paint11_linear_3_485" x1="1031.17" y1="459.901" x2="1015.69" y2="494.763" gradientUnits="userSpaceOnUse">
			<stop stop-color="white"/>
			<stop offset="1" stop-color="#999999"/>
		</linearGradient>
		<linearGradient id="paint12_linear_3_485" x1="480.385" y1="433.33" x2="410.54" y2="577.079" gradientUnits="userSpaceOnUse">
			<stop stop-color="#343434" stop-opacity="0.66"/>
			<stop offset="1" stop-color="#1A1A1A"/>
		</linearGradient>
	</defs>
</svg>
