<svg width="40" height="40" viewBox="0 0 40 40" fill="none" xmlns="http://www.w3.org/2000/svg">
	<path fill-rule="evenodd" clip-rule="evenodd" d="M10.2775 34.5507C13.1554 36.4737 16.5388 37.5 20 37.5C24.6413 37.5 29.0925 35.6563 32.3744 32.3744C35.6563 29.0925 37.5 24.6413 37.5 20C37.5 16.5388 36.4736 13.1554 34.5507 10.2775C32.6278 7.39967 29.8947 5.15665 26.697 3.83212C23.4993 2.50758 19.9806 2.16102 16.5859 2.83627C13.1913 3.51151 10.0731 5.17822 7.62563 7.62564C5.17821 10.0731 3.5115 13.1913 2.83626 16.5859C2.16102 19.9806 2.50757 23.4993 3.83211 26.697C5.15664 29.8947 7.39966 32.6278 10.2775 34.5507ZM11.6664 7.52796C14.1332 5.87974 17.0333 5.00001 20 5.00001C23.9782 5.00001 27.7936 6.58036 30.6066 9.39341C33.4196 12.2065 35 16.0218 35 20C35 22.9667 34.1203 25.8668 32.472 28.3336C30.8238 30.8003 28.4811 32.7229 25.7403 33.8582C22.9994 34.9935 19.9834 35.2906 17.0736 34.7118C14.1639 34.133 11.4912 32.7044 9.3934 30.6066C7.29561 28.5088 5.867 25.8361 5.28822 22.9264C4.70944 20.0166 5.00649 17.0006 6.14181 14.2598C7.27712 11.5189 9.19971 9.17618 11.6664 7.52796ZM18.75 20.5125L25.7375 27.5L27.5 25.7375L21.25 19.475V8.75H18.75V20.5125Z" fill="#E4E4E4"/>
</svg>
