<svg width="18" height="18" viewBox="0 0 18 18" fill="none" xmlns="http://www.w3.org/2000/svg">
	<path fill-rule="evenodd" clip-rule="evenodd" d="M12.375 15.75V12.375H13.5V15.75C13.5 16.0484 13.3815 16.3345 13.1705 16.5455C12.9595 16.7565 12.6734 16.875 12.375 16.875H3.375C3.07663 16.875 2.79048 16.7565 2.5795 16.5455C2.36853 16.3345 2.25 16.0484 2.25 15.75V2.25C2.25 1.95163 2.36853 1.66548 2.5795 1.4545C2.79048 1.24353 3.07663 1.125 3.375 1.125H9V2.25H3.375V15.75H12.375ZM14.76 1.38364L16.6163 3.23989H16.6106C16.7755 3.40813 16.8679 3.63432 16.8679 3.86989C16.8679 4.10547 16.7755 4.33166 16.6106 4.49989L8.73562 12.3749H5.625V9.25864L13.5 1.38364C13.6682 1.21874 13.8944 1.12637 14.13 1.12637C14.3656 1.12637 14.5918 1.21874 14.76 1.38364ZM6.75 11.2499H8.26875L13.5844 5.9399L12.06 4.41552L6.75 9.73114V11.2499ZM12.8531 3.62239L14.3775 5.14677L15.6544 3.86989L14.13 2.34552L12.8531 3.62239Z" fill="#E0E0E0"/>
</svg>
