<svg width="26" height="26" viewBox="0 0 26 26" fill="none" xmlns="http://www.w3.org/2000/svg">
	<path d="M4.33333 6.50008L10.9499 11.4967L10.9521 11.4985C11.6868 12.0373 12.0544 12.3069 12.457 12.411C12.8128 12.503 13.1869 12.503 13.5427 12.411C13.9457 12.3068 14.3143 12.0364 15.0503 11.4967C15.0503 11.4967 19.2943 8.23985 21.6667 6.50008M3.25 17.117V8.88363C3.25 7.67018 3.25 7.063 3.48615 6.59953C3.69388 6.19184 4.0251 5.86063 4.43278 5.6529C4.89626 5.41675 5.50343 5.41675 6.71688 5.41675H19.2835C20.497 5.41675 21.1029 5.41675 21.5663 5.6529C21.974 5.86063 22.3064 6.19184 22.5141 6.59953C22.75 7.06255 22.75 7.66899 22.75 8.88007V17.1206C22.75 18.3317 22.75 18.9373 22.5141 19.4003C22.3064 19.808 21.974 20.1398 21.5663 20.3475C21.1033 20.5834 20.4978 20.5834 19.2867 20.5834H6.71332C5.50224 20.5834 4.8958 20.5834 4.43278 20.3475C4.0251 20.1398 3.69388 19.808 3.48615 19.4003C3.25 18.9368 3.25 18.3304 3.25 17.117Z" stroke="white" stroke-width="2" stroke-linecap="round" stroke-linejoin="round"/>
</svg>
