<svg width="27" height="27" viewBox="0 0 27 27" fill="none" xmlns="http://www.w3.org/2000/svg">
	<path fill-rule="evenodd" clip-rule="evenodd" d="M13.2185 18.1737C12.7528 18.1737 12.3748 17.7957 12.3748 17.3299V9.08706C12.3748 8.62135 12.7528 8.24335 13.2185 8.24335C13.6843 8.24335 14.0623 8.62135 14.0623 9.08706V17.3299C14.0623 17.7957 13.6843 18.1737 13.2185 18.1737Z" fill="white"/>
	<path fill-rule="evenodd" clip-rule="evenodd" d="M17.3434 14.0516H9.09371C8.62684 14.0516 8.25 13.6736 8.25 13.2079C8.25 12.7421 8.62684 12.3641 9.09371 12.3641H17.3434C17.8091 12.3641 18.1871 12.7421 18.1871 13.2079C18.1871 13.6736 17.8091 14.0516 17.3434 14.0516Z" fill="white"/>
	<path fill-rule="evenodd" clip-rule="evenodd" d="M7.94701 2.81262C4.82851 2.81262 2.8125 4.94674 2.8125 8.25196V18.1857C2.8125 21.491 4.82851 23.6251 7.94701 23.6251H18.4905C21.6101 23.6251 23.625 21.491 23.625 18.1857V8.25196C23.625 4.94674 21.6101 2.81262 18.4905 2.81262H7.94701ZM18.4905 25.3126H7.94701C3.86663 25.3126 1.125 22.4483 1.125 18.1857V8.25196C1.125 3.98937 3.86663 1.12512 7.94701 1.12512H18.4905C22.5709 1.12512 25.3125 3.98937 25.3125 8.25196V18.1857C25.3125 22.4483 22.5709 25.3126 18.4905 25.3126Z" fill="white"/>
</svg>
