<svg width="23" height="22" viewBox="0 0 23 22" fill="none" xmlns="http://www.w3.org/2000/svg">
<g clip-path="url(#clip0_139_60)">
<path d="M21 11.6669C20.9123 11.6669 20.8253 11.6499 20.7441 11.6169C20.6629 11.5839 20.589 11.5349 20.5267 11.4729L11 1.93988L1.47343 11.4729C1.34583 11.5829 1.18183 11.6399 1.01403 11.6329C0.846232 11.6269 0.68703 11.5569 0.56833 11.4379C0.44963 11.3199 0.380033 11.1599 0.373533 10.9929C0.367133 10.8249 0.424134 10.6609 0.533434 10.5329L10.5334 0.532898C10.6583 0.408898 10.8272 0.338867 11.0034 0.338867C11.1795 0.338867 11.3484 0.408898 11.4733 0.532898L21.4733 10.5329C21.5651 10.6269 21.6272 10.7449 21.6519 10.8739C21.6767 11.0029 21.6629 11.1359 21.6124 11.2569C21.5619 11.3779 21.4769 11.4809 21.368 11.5539C21.2591 11.6269 21.1311 11.6659 21 11.6669Z" fill="white"/>
<path d="M11 4L3 12.0267V20.14C3 20.4936 3.14048 20.8328 3.39052 21.0828C3.64057 21.3329 3.97971 21.4734 4.33333 21.4734H9V14.8067H13V21.4734H17.6667C18.0203 21.4734 18.3594 21.3329 18.6095 21.0828C18.8595 20.8328 19 20.4936 19 20.14V11.98L11 4Z" fill="white"/>
</g>
<defs>
<clipPath id="clip0_139_60">
<rect width="22" height="22" fill="white"/>
</clipPath>
</defs>
</svg>
