<svg width="22" height="22" viewBox="0 0 22 22" fill="none" xmlns="http://www.w3.org/2000/svg">
	<path d="M11.0001 13.75L13.7501 11M13.7501 11L11.0001 8.25002M13.7501 11H3.66675M3.66675 6.64404V6.6002C3.66675 5.57344 3.66675 5.05967 3.86657 4.6675C4.04234 4.32254 4.3226 4.04228 4.66756 3.86651C5.05973 3.66669 5.5735 3.66669 6.60026 3.66669H15.4003C16.427 3.66669 16.9397 3.66669 17.3319 3.86651C17.6768 4.04228 17.958 4.32254 18.1338 4.6675C18.3334 5.05929 18.3334 5.57243 18.3334 6.59719V15.4033C18.3334 16.4281 18.3334 16.9405 18.1338 17.3322C17.958 17.6772 17.6768 17.958 17.3319 18.1337C16.9401 18.3334 16.4277 18.3334 15.4029 18.3334H6.59725C5.57249 18.3334 5.05935 18.3334 4.66756 18.1337C4.3226 17.958 4.04234 17.6769 3.86657 17.332C3.66675 16.9398 3.66675 16.4268 3.66675 15.4V15.3542" stroke="white" stroke-width="2" stroke-linecap="round" stroke-linejoin="round"/>
</svg>
