<svg width="139" height="20" viewBox="0 0 139 20" fill="none" xmlns="http://www.w3.org/2000/svg">
	<path d="M17.7363 6.89649L12.7774 6.17579L10.5606 1.68165C10.5 1.5586 10.4004 1.45899 10.2773 1.39844C9.96876 1.2461 9.59376 1.37305 9.43946 1.68165L7.22266 6.17579L2.26368 6.89649C2.12696 6.91602 2.00196 6.98048 1.90626 7.07813C1.79056 7.19705 1.7268 7.35704 1.729 7.52294C1.7312 7.68884 1.79917 7.84709 1.91797 7.9629L5.50587 11.4609L4.65821 16.4004C4.63833 16.5153 4.65105 16.6335 4.69491 16.7415C4.73878 16.8496 4.81204 16.9432 4.90639 17.0117C5.00074 17.0802 5.1124 17.1209 5.22872 17.1292C5.34503 17.1375 5.46134 17.113 5.56446 17.0586L10 14.7266L14.4356 17.0586C14.5566 17.1231 14.6973 17.1445 14.832 17.1211C15.1719 17.0625 15.4004 16.7402 15.3418 16.4004L14.4941 11.4609L18.082 7.9629C18.1797 7.8672 18.2441 7.74219 18.2637 7.60548C18.3164 7.26368 18.0781 6.94727 17.7363 6.89649V6.89649Z" fill="#FFD33C"/>
	<path d="M41.7363 6.89649L36.7774 6.17579L34.5606 1.68165C34.5 1.5586 34.4004 1.45899 34.2773 1.39844C33.9688 1.2461 33.5938 1.37305 33.4395 1.68165L31.2227 6.17579L26.2637 6.89649C26.127 6.91602 26.002 6.98048 25.9063 7.07813C25.7906 7.19705 25.7268 7.35704 25.729 7.52294C25.7312 7.68884 25.7992 7.84709 25.918 7.9629L29.5059 11.4609L28.6582 16.4004C28.6383 16.5153 28.651 16.6335 28.6949 16.7415C28.7388 16.8496 28.812 16.9432 28.9064 17.0117C29.0007 17.0802 29.1124 17.1209 29.2287 17.1292C29.345 17.1375 29.4613 17.113 29.5645 17.0586L34 14.7266L38.4356 17.0586C38.5566 17.1231 38.6973 17.1445 38.832 17.1211C39.1719 17.0625 39.4004 16.7402 39.3418 16.4004L38.4941 11.4609L42.082 7.9629C42.1797 7.8672 42.2441 7.74219 42.2637 7.60548C42.3164 7.26368 42.0781 6.94727 41.7363 6.89649V6.89649Z" fill="#FFD33C"/>
	<path d="M64.7363 6.89649L59.7774 6.17579L57.5606 1.68165C57.5 1.5586 57.4004 1.45899 57.2773 1.39844C56.9688 1.2461 56.5938 1.37305 56.4395 1.68165L54.2227 6.17579L49.2637 6.89649C49.127 6.91602 49.002 6.98048 48.9063 7.07813C48.7906 7.19705 48.7268 7.35704 48.729 7.52294C48.7312 7.68884 48.7992 7.84709 48.918 7.9629L52.5059 11.4609L51.6582 16.4004C51.6383 16.5153 51.651 16.6335 51.6949 16.7415C51.7388 16.8496 51.812 16.9432 51.9064 17.0117C52.0007 17.0802 52.1124 17.1209 52.2287 17.1292C52.345 17.1375 52.4613 17.113 52.5645 17.0586L57 14.7266L61.4356 17.0586C61.5566 17.1231 61.6973 17.1445 61.832 17.1211C62.1719 17.0625 62.4004 16.7402 62.3418 16.4004L61.4941 11.4609L65.082 7.9629C65.1797 7.8672 65.2441 7.74219 65.2637 7.60548C65.3164 7.26368 65.0781 6.94727 64.7363 6.89649V6.89649Z" fill="#FFD33C"/>
	<path d="M88.7363 6.89649L83.7774 6.17579L81.5606 1.68165C81.5 1.5586 81.4004 1.45899 81.2773 1.39844C80.9688 1.2461 80.5938 1.37305 80.4395 1.68165L78.2227 6.17579L73.2637 6.89649C73.127 6.91602 73.002 6.98048 72.9063 7.07813C72.7906 7.19705 72.7268 7.35704 72.729 7.52294C72.7312 7.68884 72.7992 7.84709 72.918 7.9629L76.5059 11.4609L75.6582 16.4004C75.6383 16.5153 75.651 16.6335 75.6949 16.7415C75.7388 16.8496 75.812 16.9432 75.9064 17.0117C76.0007 17.0802 76.1124 17.1209 76.2287 17.1292C76.345 17.1375 76.4613 17.113 76.5645 17.0586L81 14.7266L85.4356 17.0586C85.5566 17.1231 85.6973 17.1445 85.832 17.1211C86.1719 17.0625 86.4004 16.7402 86.3418 16.4004L85.4941 11.4609L89.082 7.9629C89.1797 7.8672 89.2441 7.74219 89.2637 7.60548C89.3164 7.26368 89.0781 6.94727 88.7363 6.89649V6.89649Z" fill="#FFD33C" fill-opacity="0.21"/>
	<path d="M112.736 6.89649L107.777 6.17579L105.561 1.68165C105.5 1.5586 105.4 1.45899 105.277 1.39844C104.969 1.2461 104.594 1.37305 104.439 1.68165L102.223 6.17579L97.2637 6.89649C97.127 6.91602 97.002 6.98048 96.9063 7.07813C96.7906 7.19705 96.7268 7.35704 96.729 7.52294C96.7312 7.68884 96.7992 7.84709 96.918 7.9629L100.506 11.4609L99.6582 16.4004C99.6383 16.5153 99.651 16.6335 99.6949 16.7415C99.7388 16.8496 99.812 16.9432 99.9064 17.0117C100.001 17.0802 100.112 17.1209 100.229 17.1292C100.345 17.1375 100.461 17.113 100.564 17.0586L105 14.7266L109.436 17.0586C109.557 17.1231 109.697 17.1445 109.832 17.1211C110.172 17.0625 110.4 16.7402 110.342 16.4004L109.494 11.4609L113.082 7.9629C113.18 7.8672 113.244 7.74219 113.264 7.60548C113.316 7.26368 113.078 6.94727 112.736 6.89649V6.89649Z" fill="#FFD33C" fill-opacity="0.21"/>
	<path d="M121.516 15.144C121.028 15.144 120.564 15.056 120.124 14.88C119.692 14.696 119.32 14.44 119.008 14.112C118.704 13.776 118.496 13.38 118.384 12.924L119.812 12.42C119.956 12.828 120.176 13.14 120.472 13.356C120.768 13.564 121.116 13.668 121.516 13.668C121.836 13.668 122.112 13.608 122.344 13.488C122.584 13.368 122.772 13.196 122.908 12.972C123.044 12.74 123.112 12.468 123.112 12.156C123.112 11.844 123.044 11.58 122.908 11.364C122.78 11.14 122.596 10.968 122.356 10.848C122.116 10.728 121.832 10.668 121.504 10.668C121.352 10.668 121.192 10.684 121.024 10.716C120.864 10.748 120.72 10.796 120.592 10.86L120.22 10.08L122.536 7.44H118.888V6.06H124.372V7.344L122.044 10.068L122.068 9.456C122.604 9.464 123.072 9.58 123.472 9.804C123.872 10.028 124.184 10.336 124.408 10.728C124.632 11.12 124.744 11.58 124.744 12.108C124.744 12.684 124.604 13.204 124.324 13.668C124.044 14.124 123.66 14.484 123.172 14.748C122.684 15.012 122.132 15.144 121.516 15.144ZM126.812 15V13.32H128.396V15H126.812ZM134.119 15.144C133.407 15.144 132.783 14.952 132.247 14.568C131.711 14.184 131.291 13.644 130.987 12.948C130.691 12.252 130.543 11.444 130.543 10.524C130.543 9.596 130.691 8.788 130.987 8.1C131.283 7.412 131.699 6.876 132.235 6.492C132.771 6.108 133.395 5.916 134.107 5.916C134.835 5.916 135.463 6.108 135.991 6.492C136.527 6.876 136.947 7.416 137.251 8.112C137.555 8.8 137.707 9.604 137.707 10.524C137.707 11.444 137.555 12.252 137.251 12.948C136.955 13.636 136.539 14.176 136.003 14.568C135.467 14.952 134.839 15.144 134.119 15.144ZM134.131 13.656C134.539 13.656 134.887 13.532 135.175 13.284C135.463 13.028 135.683 12.668 135.835 12.204C135.995 11.732 136.075 11.172 136.075 10.524C136.075 9.876 135.995 9.32 135.835 8.856C135.683 8.384 135.459 8.024 135.163 7.776C134.875 7.528 134.523 7.404 134.107 7.404C133.707 7.404 133.363 7.528 133.075 7.776C132.787 8.024 132.563 8.384 132.403 8.856C132.251 9.32 132.175 9.876 132.175 10.524C132.175 11.164 132.251 11.72 132.403 12.192C132.563 12.656 132.787 13.016 133.075 13.272C133.371 13.528 133.723 13.656 134.131 13.656Z" fill="#F2F2F2"/>
</svg>
