<svg width="139" height="20" viewBox="0 0 139 20" fill="none" xmlns="http://www.w3.org/2000/svg">
	<path d="M17.7363 6.89649L12.7774 6.17579L10.5606 1.68165C10.5 1.5586 10.4004 1.45899 10.2773 1.39844C9.96876 1.2461 9.59376 1.37305 9.43946 1.68165L7.22266 6.17579L2.26368 6.89649C2.12696 6.91602 2.00196 6.98048 1.90626 7.07813C1.79056 7.19705 1.7268 7.35704 1.729 7.52294C1.7312 7.68884 1.79917 7.84709 1.91797 7.9629L5.50587 11.4609L4.65821 16.4004C4.63833 16.5153 4.65105 16.6335 4.69491 16.7415C4.73878 16.8496 4.81204 16.9432 4.90639 17.0117C5.00074 17.0802 5.1124 17.1209 5.22872 17.1292C5.34503 17.1375 5.46134 17.113 5.56446 17.0586L10 14.7266L14.4356 17.0586C14.5566 17.1231 14.6973 17.1445 14.832 17.1211C15.1719 17.0625 15.4004 16.7402 15.3418 16.4004L14.4941 11.4609L18.082 7.9629C18.1797 7.8672 18.2441 7.74219 18.2637 7.60548C18.3164 7.26368 18.0781 6.94727 17.7363 6.89649V6.89649Z" fill="#FFD33C"/>
	<path d="M41.7363 6.89649L36.7774 6.17579L34.5606 1.68165C34.5 1.5586 34.4004 1.45899 34.2773 1.39844C33.9688 1.2461 33.5938 1.37305 33.4395 1.68165L31.2227 6.17579L26.2637 6.89649C26.127 6.91602 26.002 6.98048 25.9063 7.07813C25.7906 7.19705 25.7268 7.35704 25.729 7.52294C25.7312 7.68884 25.7992 7.84709 25.918 7.9629L29.5059 11.4609L28.6582 16.4004C28.6383 16.5153 28.651 16.6335 28.6949 16.7415C28.7388 16.8496 28.812 16.9432 28.9064 17.0117C29.0007 17.0802 29.1124 17.1209 29.2287 17.1292C29.345 17.1375 29.4613 17.113 29.5645 17.0586L34 14.7266L38.4356 17.0586C38.5566 17.1231 38.6973 17.1445 38.832 17.1211C39.1719 17.0625 39.4004 16.7402 39.3418 16.4004L38.4941 11.4609L42.082 7.9629C42.1797 7.8672 42.2441 7.74219 42.2637 7.60548C42.3164 7.26368 42.0781 6.94727 41.7363 6.89649V6.89649Z" fill="#FFD33C" fill-opacity="0.21"/>
	<path d="M64.7363 6.89649L59.7774 6.17579L57.5606 1.68165C57.5 1.5586 57.4004 1.45899 57.2773 1.39844C56.9688 1.2461 56.5938 1.37305 56.4395 1.68165L54.2227 6.17579L49.2637 6.89649C49.127 6.91602 49.002 6.98048 48.9063 7.07813C48.7906 7.19705 48.7268 7.35704 48.729 7.52294C48.7312 7.68884 48.7992 7.84709 48.918 7.9629L52.5059 11.4609L51.6582 16.4004C51.6383 16.5153 51.651 16.6335 51.6949 16.7415C51.7388 16.8496 51.812 16.9432 51.9064 17.0117C52.0007 17.0802 52.1124 17.1209 52.2287 17.1292C52.345 17.1375 52.4613 17.113 52.5645 17.0586L57 14.7266L61.4356 17.0586C61.5566 17.1231 61.6973 17.1445 61.832 17.1211C62.1719 17.0625 62.4004 16.7402 62.3418 16.4004L61.4941 11.4609L65.082 7.9629C65.1797 7.8672 65.2441 7.74219 65.2637 7.60548C65.3164 7.26368 65.0781 6.94727 64.7363 6.89649V6.89649Z" fill="#FFD33C" fill-opacity="0.21"/>
	<path d="M88.7363 6.89649L83.7774 6.17579L81.5606 1.68165C81.5 1.5586 81.4004 1.45899 81.2773 1.39844C80.9688 1.2461 80.5938 1.37305 80.4395 1.68165L78.2227 6.17579L73.2637 6.89649C73.127 6.91602 73.002 6.98048 72.9063 7.07813C72.7906 7.19705 72.7268 7.35704 72.729 7.52294C72.7312 7.68884 72.7992 7.84709 72.918 7.9629L76.5059 11.4609L75.6582 16.4004C75.6383 16.5153 75.651 16.6335 75.6949 16.7415C75.7388 16.8496 75.812 16.9432 75.9064 17.0117C76.0007 17.0802 76.1124 17.1209 76.2287 17.1292C76.345 17.1375 76.4613 17.113 76.5645 17.0586L81 14.7266L85.4356 17.0586C85.5566 17.1231 85.6973 17.1445 85.832 17.1211C86.1719 17.0625 86.4004 16.7402 86.3418 16.4004L85.4941 11.4609L89.082 7.9629C89.1797 7.8672 89.2441 7.74219 89.2637 7.60548C89.3164 7.26368 89.0781 6.94727 88.7363 6.89649V6.89649Z" fill="#FFD33C" fill-opacity="0.21"/>
	<path d="M112.736 6.89649L107.777 6.17579L105.561 1.68165C105.5 1.5586 105.4 1.45899 105.277 1.39844C104.969 1.2461 104.594 1.37305 104.439 1.68165L102.223 6.17579L97.2637 6.89649C97.127 6.91602 97.002 6.98048 96.9063 7.07813C96.7906 7.19705 96.7268 7.35704 96.729 7.52294C96.7312 7.68884 96.7992 7.84709 96.918 7.9629L100.506 11.4609L99.6582 16.4004C99.6383 16.5153 99.651 16.6335 99.6949 16.7415C99.7388 16.8496 99.812 16.9432 99.9064 17.0117C100.001 17.0802 100.112 17.1209 100.229 17.1292C100.345 17.1375 100.461 17.113 100.564 17.0586L105 14.7266L109.436 17.0586C109.557 17.1231 109.697 17.1445 109.832 17.1211C110.172 17.0625 110.4 16.7402 110.342 16.4004L109.494 11.4609L113.082 7.9629C113.18 7.8672 113.244 7.74219 113.264 7.60548C113.316 7.26368 113.078 6.94727 112.736 6.89649V6.89649Z" fill="#FFD33C" fill-opacity="0.21"/>
	<path d="M120.076 15V7.452H118.348V6.06H121.708V15H120.076ZM124.316 15V13.32H125.9V15H124.316ZM131.623 15.144C130.911 15.144 130.287 14.952 129.751 14.568C129.215 14.184 128.795 13.644 128.491 12.948C128.195 12.252 128.047 11.444 128.047 10.524C128.047 9.596 128.195 8.788 128.491 8.1C128.787 7.412 129.203 6.876 129.739 6.492C130.275 6.108 130.899 5.916 131.611 5.916C132.339 5.916 132.967 6.108 133.495 6.492C134.031 6.876 134.451 7.416 134.755 8.112C135.059 8.8 135.211 9.604 135.211 10.524C135.211 11.444 135.059 12.252 134.755 12.948C134.459 13.636 134.043 14.176 133.507 14.568C132.971 14.952 132.343 15.144 131.623 15.144ZM131.635 13.656C132.043 13.656 132.391 13.532 132.679 13.284C132.967 13.028 133.187 12.668 133.339 12.204C133.499 11.732 133.579 11.172 133.579 10.524C133.579 9.876 133.499 9.32 133.339 8.856C133.187 8.384 132.963 8.024 132.667 7.776C132.379 7.528 132.027 7.404 131.611 7.404C131.211 7.404 130.867 7.528 130.579 7.776C130.291 8.024 130.067 8.384 129.907 8.856C129.755 9.32 129.679 9.876 129.679 10.524C129.679 11.164 129.755 11.72 129.907 12.192C130.067 12.656 130.291 13.016 130.579 13.272C130.875 13.528 131.227 13.656 131.635 13.656Z" fill="#F2F2F2"/>
</svg>
