<svg width="139" height="20" viewBox="0 0 139 20" fill="none" xmlns="http://www.w3.org/2000/svg">
	<path d="M17.7363 6.89649L12.7774 6.17579L10.5606 1.68165C10.5 1.5586 10.4004 1.45899 10.2773 1.39844C9.96876 1.2461 9.59376 1.37305 9.43946 1.68165L7.22266 6.17579L2.26368 6.89649C2.12696 6.91602 2.00196 6.98048 1.90626 7.07813C1.79056 7.19705 1.7268 7.35704 1.729 7.52294C1.7312 7.68884 1.79917 7.84709 1.91797 7.9629L5.50587 11.4609L4.65821 16.4004C4.63833 16.5153 4.65105 16.6335 4.69491 16.7415C4.73878 16.8496 4.81204 16.9432 4.90639 17.0117C5.00074 17.0802 5.1124 17.1209 5.22872 17.1292C5.34503 17.1375 5.46134 17.113 5.56446 17.0586L10 14.7266L14.4356 17.0586C14.5566 17.1231 14.6973 17.1445 14.832 17.1211C15.1719 17.0625 15.4004 16.7402 15.3418 16.4004L14.4941 11.4609L18.082 7.9629C18.1797 7.8672 18.2441 7.74219 18.2637 7.60548C18.3164 7.26368 18.0781 6.94727 17.7363 6.89649V6.89649Z" fill="#FFD33C"/>
	<path d="M41.7363 6.89649L36.7774 6.17579L34.5606 1.68165C34.5 1.5586 34.4004 1.45899 34.2773 1.39844C33.9688 1.2461 33.5938 1.37305 33.4395 1.68165L31.2227 6.17579L26.2637 6.89649C26.127 6.91602 26.002 6.98048 25.9063 7.07813C25.7906 7.19705 25.7268 7.35704 25.729 7.52294C25.7312 7.68884 25.7992 7.84709 25.918 7.9629L29.5059 11.4609L28.6582 16.4004C28.6383 16.5153 28.651 16.6335 28.6949 16.7415C28.7388 16.8496 28.812 16.9432 28.9064 17.0117C29.0007 17.0802 29.1124 17.1209 29.2287 17.1292C29.345 17.1375 29.4613 17.113 29.5645 17.0586L34 14.7266L38.4356 17.0586C38.5566 17.1231 38.6973 17.1445 38.832 17.1211C39.1719 17.0625 39.4004 16.7402 39.3418 16.4004L38.4941 11.4609L42.082 7.9629C42.1797 7.8672 42.2441 7.74219 42.2637 7.60548C42.3164 7.26368 42.0781 6.94727 41.7363 6.89649V6.89649Z" fill="#FFD33C"/>
	<path d="M64.7363 6.89649L59.7774 6.17579L57.5606 1.68165C57.5 1.5586 57.4004 1.45899 57.2773 1.39844C56.9688 1.2461 56.5938 1.37305 56.4395 1.68165L54.2227 6.17579L49.2637 6.89649C49.127 6.91602 49.002 6.98048 48.9063 7.07813C48.7906 7.19705 48.7268 7.35704 48.729 7.52294C48.7312 7.68884 48.7992 7.84709 48.918 7.9629L52.5059 11.4609L51.6582 16.4004C51.6383 16.5153 51.651 16.6335 51.6949 16.7415C51.7388 16.8496 51.812 16.9432 51.9064 17.0117C52.0007 17.0802 52.1124 17.1209 52.2287 17.1292C52.345 17.1375 52.4613 17.113 52.5645 17.0586L57 14.7266L61.4356 17.0586C61.5566 17.1231 61.6973 17.1445 61.832 17.1211C62.1719 17.0625 62.4004 16.7402 62.3418 16.4004L61.4941 11.4609L65.082 7.9629C65.1797 7.8672 65.2441 7.74219 65.2637 7.60548C65.3164 7.26368 65.0781 6.94727 64.7363 6.89649V6.89649Z" fill="#FFD33C"/>
	<path d="M88.7363 6.89649L83.7774 6.17579L81.5606 1.68165C81.5 1.5586 81.4004 1.45899 81.2773 1.39844C80.9688 1.2461 80.5938 1.37305 80.4395 1.68165L78.2227 6.17579L73.2637 6.89649C73.127 6.91602 73.002 6.98048 72.9063 7.07813C72.7906 7.19705 72.7268 7.35704 72.729 7.52294C72.7312 7.68884 72.7992 7.84709 72.918 7.9629L76.5059 11.4609L75.6582 16.4004C75.6383 16.5153 75.651 16.6335 75.6949 16.7415C75.7388 16.8496 75.812 16.9432 75.9064 17.0117C76.0007 17.0802 76.1124 17.1209 76.2287 17.1292C76.345 17.1375 76.4613 17.113 76.5645 17.0586L81 14.7266L85.4356 17.0586C85.5566 17.1231 85.6973 17.1445 85.832 17.1211C86.1719 17.0625 86.4004 16.7402 86.3418 16.4004L85.4941 11.4609L89.082 7.9629C89.1797 7.8672 89.2441 7.74219 89.2637 7.60548C89.3164 7.26368 89.0781 6.94727 88.7363 6.89649V6.89649Z" fill="#FFD33C"/>
	<path d="M112.736 6.89649L107.777 6.17579L105.561 1.68165C105.5 1.5586 105.4 1.45899 105.277 1.39844C104.969 1.2461 104.594 1.37305 104.439 1.68165L102.223 6.17579L97.2637 6.89649C97.127 6.91602 97.002 6.98048 96.9063 7.07813C96.7906 7.19705 96.7268 7.35704 96.729 7.52294C96.7312 7.68884 96.7992 7.84709 96.918 7.9629L100.506 11.4609L99.6582 16.4004C99.6383 16.5153 99.651 16.6335 99.6949 16.7415C99.7388 16.8496 99.812 16.9432 99.9064 17.0117C100.001 17.0802 100.112 17.1209 100.229 17.1292C100.345 17.1375 100.461 17.113 100.564 17.0586L105 14.7266L109.436 17.0586C109.557 17.1231 109.697 17.1445 109.832 17.1211C110.172 17.0625 110.4 16.7402 110.342 16.4004L109.494 11.4609L113.082 7.9629C113.18 7.8672 113.244 7.74219 113.264 7.60548C113.316 7.26368 113.078 6.94727 112.736 6.89649V6.89649Z" fill="#FFD33C" fill-opacity="0.21"/>
	<path d="M122.536 15V13.032H118.432V11.664L122.44 6.06H124.144V11.664H125.452V13.032H124.144V15H122.536ZM119.632 12.252L119.344 11.664H122.536V7.344L122.956 7.476L119.632 12.252ZM127.328 15V13.32H128.912V15H127.328ZM134.635 15.144C133.923 15.144 133.299 14.952 132.763 14.568C132.227 14.184 131.807 13.644 131.503 12.948C131.207 12.252 131.059 11.444 131.059 10.524C131.059 9.596 131.207 8.788 131.503 8.1C131.799 7.412 132.215 6.876 132.751 6.492C133.287 6.108 133.911 5.916 134.623 5.916C135.351 5.916 135.979 6.108 136.507 6.492C137.043 6.876 137.463 7.416 137.767 8.112C138.071 8.8 138.223 9.604 138.223 10.524C138.223 11.444 138.071 12.252 137.767 12.948C137.471 13.636 137.055 14.176 136.519 14.568C135.983 14.952 135.355 15.144 134.635 15.144ZM134.647 13.656C135.055 13.656 135.403 13.532 135.691 13.284C135.979 13.028 136.199 12.668 136.351 12.204C136.511 11.732 136.591 11.172 136.591 10.524C136.591 9.876 136.511 9.32 136.351 8.856C136.199 8.384 135.975 8.024 135.679 7.776C135.391 7.528 135.039 7.404 134.623 7.404C134.223 7.404 133.879 7.528 133.591 7.776C133.303 8.024 133.079 8.384 132.919 8.856C132.767 9.32 132.691 9.876 132.691 10.524C132.691 11.164 132.767 11.72 132.919 12.192C133.079 12.656 133.303 13.016 133.591 13.272C133.887 13.528 134.239 13.656 134.647 13.656Z" fill="#F2F2F2"/>
</svg>
