<svg width="20" height="20" viewBox="0 0 20 20" fill="none" xmlns="http://www.w3.org/2000/svg">
	<path fill-rule="evenodd" clip-rule="evenodd" d="M9.23616 3.02666C8.72225 2.68328 8.11807 2.5 7.5 2.5C6.6712 2.5 5.87634 2.82924 5.29029 3.41529C4.70424 4.00134 4.375 4.7962 4.375 5.625C4.375 6.24307 4.55828 6.84725 4.90166 7.36116C5.24504 7.87506 5.7331 8.2756 6.30411 8.51212C6.87513 8.74865 7.50347 8.81053 8.10966 8.68995C8.71585 8.56937 9.27267 8.27175 9.70971 7.83471C10.1467 7.39767 10.4444 6.84085 10.565 6.23466C10.6855 5.62847 10.6236 5.00013 10.3871 4.42911C10.1506 3.85809 9.75006 3.37004 9.23616 3.02666ZM5.06938 1.98732C5.78885 1.50659 6.63471 1.25 7.5 1.25C8.66032 1.25 9.77312 1.71094 10.5936 2.53141C11.4141 3.35188 11.875 4.46468 11.875 5.625C11.875 6.49029 11.6184 7.33615 11.1377 8.05562C10.6569 8.77508 9.97367 9.33584 9.17424 9.66697C8.37481 9.99811 7.49515 10.0847 6.64648 9.91593C5.79781 9.74712 5.01826 9.33045 4.40641 8.71859C3.79455 8.10674 3.37787 7.32719 3.20906 6.47852C3.04025 5.62985 3.12689 4.75019 3.45803 3.95076C3.78916 3.15133 4.34992 2.46805 5.06938 1.98732ZM17.5438 13.125L13.75 9.375L17.5438 5.625L18.4375 6.50625L15.5375 9.375L18.4375 12.2437L17.5438 13.125ZM13.75 18.75H12.5V15.625C12.5 14.7962 12.1708 14.0013 11.5847 13.4153C10.9987 12.8292 10.2038 12.5 9.375 12.5H5.625C4.7962 12.5 4.00134 12.8292 3.41529 13.4153C2.82924 14.0013 2.5 14.7962 2.5 15.625V18.75H1.25V15.625C1.25 14.4647 1.71094 13.3519 2.53141 12.5314C3.35188 11.7109 4.46468 11.25 5.625 11.25H9.375C10.5353 11.25 11.6481 11.7109 12.4686 12.5314C13.2891 13.3519 13.75 14.4647 13.75 15.625V18.75Z" fill="#DCDCDC"/>
</svg>
