<svg width="26" height="26" viewBox="0 0 26 26" fill="none" xmlns="http://www.w3.org/2000/svg">
	<path d="M18.4167 22.75C18.4167 19.7585 15.9915 17.3333 13 17.3333C10.0085 17.3333 7.58333 19.7585 7.58333 22.75M18.4167 22.75H19.2867C20.4978 22.75 21.1033 22.75 21.5663 22.5141C21.974 22.3064 22.3064 21.974 22.5141 21.5663C22.75 21.1033 22.75 20.4978 22.75 19.2867V6.71332C22.75 5.50224 22.75 4.8958 22.5141 4.43278C22.3064 4.0251 21.974 3.69388 21.5663 3.48615C21.1029 3.25 20.497 3.25 19.2835 3.25H6.71688C5.50343 3.25 4.89626 3.25 4.43278 3.48615C4.0251 3.69388 3.69388 4.0251 3.48615 4.43278C3.25 4.89626 3.25 5.50343 3.25 6.71688V19.2835C3.25 20.497 3.25 21.1029 3.48615 21.5663C3.69388 21.974 4.0251 22.3064 4.43278 22.5141C4.8958 22.75 5.50224 22.75 6.71332 22.75H7.58333M18.4167 22.75H7.58333M13 14.0833C11.2051 14.0833 9.75 12.6283 9.75 10.8333C9.75 9.03841 11.2051 7.58333 13 7.58333C14.7949 7.58333 16.25 9.03841 16.25 10.8333C16.25 12.6283 14.7949 14.0833 13 14.0833Z" stroke="white" stroke-width="2" stroke-linecap="round" stroke-linejoin="round"/>
</svg>
